<svg xmlns="http://www.w3.org/2000/svg" viewBox="0 0 112.59 109.82"><defs><style>.cls-1{fill:#27c7e2;}.cls-2{fill:#35ddef;}.cls-3{fill:#0c5959;}.cls-4{fill:#1d9096;}.cls-5{fill:#0a3e44;}.cls-6{fill:#e86f66;}</style></defs><title>Recurso 6</title><g id="Capa_2" data-name="Capa 2"><g id="Capa_1-2" data-name="Capa 1"><path class="cls-1" d="M29.19,55.45c4.87-3.08,9.68-6.18,15.08-8.39a61.29,61.29,0,0,0,16.6-9.74c8.24-7,8.12-7.15,16.75-1,.3.49-2.56,4.65-2.83,5.14-1.5,2.67-3.88,6-6.22,9.67a52.92,52.92,0,0,0-5.72,11A17.29,17.29,0,0,0,62,69.73c.33,3.12,1.57,5.32-.39,8.18-1.81,2.63-21,30.73-21.84,30.09-5.35-4-11-7.62-16-12-4.14-3.68-9.6-7.11-7.88-14.23"/><path class="cls-2" d="M72.12,3.68c7.32-4.89,11.67-5,18.36.12,5,3.77,10.44,6.9,14.77,11.49L99,23.39c-1.37-.6-2.33-2.25-4.18-1.63-6.4-4.71-12.83-9.4-19.2-14.17C74.17,6.55,72.19,5.93,72.12,3.68Z"/><path class="cls-3" d="M72.12,3.68c.07,2.25,2,2.87,3.45,3.91,6.37,4.77,12.8,9.46,19.2,14.17C93.11,23.84,90.4,25,89.35,27.6l-2.5-1.77L71.36,14.48c-.66-.49-1.29-1-2-1.46-2.13-1.42-4.1-3-3.14-5.94C67.16,4.36,69.43,3.55,72.12,3.68Z"/><path class="cls-4" d="M78.13,35.91l-14-11.13c1.79-3.49,3.54-7,6.82-9.43-1.64,2.18-.51,3.47,1.34,4.76,4,2.82,8,5.77,11.94,8.66A32.23,32.23,0,0,1,79,36,1.44,1.44,0,0,0,78.13,35.91Z"/><path class="cls-3" d="M89.35,27.6c1.05-2.65,3.76-3.76,5.42-5.84,1.85-.62,2.81,1,4.17,1.63l2.33,2.1c-.54.62-1,1.54-1.66,1.8-4.58,1.76-6,5.25-5.63,9.8.07,1-.09,2.1-1.3,2.35-1.54.32-2-.83-2.2-2C90.05,34.15,89.72,30.87,89.35,27.6Z"/><path class="cls-1" d="M84.19,28.77c-4-2.89-7.91-5.84-11.94-8.66-1.85-1.29-3-2.58-1.34-4.76q.24-.42.45-.87L86.85,25.83Z"/><path class="cls-5" d="M101.27,25.49l-2.33-2.1,6.31-8.1c1.44,1.08,3,2.09,4.32,3.25,2.31,2,4.47,3.65,1.76,7.28s-5,2.9-7.86.79A14.65,14.65,0,0,0,101.27,25.49Zm3-.48c2,1.63,3.83,2.29,5.62-.1s.68-3.83-1.26-5.4c-2.17-1.74-3.62-1.57-5.27.75S102.26,23.86,104.31,25Z"/><path class="cls-6" d="M63.08,75.33,63,73.83Z"/><path class="cls-5" d="M104.31,25c-2-1.15-2.47-2.55-.91-4.75s3.1-2.49,5.27-.75c1.94,1.57,3,3.06,1.26,5.4S106.3,26.64,104.31,25Z"/><path class="cls-1" d="M15.93,81.75s4.14-20.57,13.26-26.3"/><path class="cls-2" d="M44.27,47.06a73.6,73.6,0,0,0-10,5.23A33.3,33.3,0,0,0,28,57c-5.08,5-8.2,12.77-10.56,19.29-1.36,3.72-2.69,8.22-.9,12,1.53,3.23,4.69,5.38,7.29,7.68,5,4.41,10.61,8,16,12l-.21.58c-4.73,2.21-9,1.37-13.09-1.7-6.8-5.1-13.71-10-20.51-15.15S-1.88,79.91,3.08,73c5.74-8,11.64-15.85,17.48-23.76,1.61-2.19,3.52-4.16,6.16-4.9,13.85-3.89,26-10.92,37.37-19.58l14,11.13a3.42,3.42,0,0,1-.51.43c-8.63-6.17-8.51-6-16.75,1A61.29,61.29,0,0,1,44.27,47.06Z"/></g></g></svg>