<svg xmlns="http://www.w3.org/2000/svg" viewBox="0 0 84.24 88.66"><defs><style>.cls-1{fill:#27c7e2;}.cls-2{fill:#0d7a7f;}.cls-3{fill:#1299af;}.cls-4{fill:#0d7075;}.cls-5{fill:#35ddef;}.cls-6{fill:#159fad;}.cls-7{fill:#1cb6c6;}.cls-8{opacity:0.5;}.cls-9{fill:#82f4f4;opacity:0.45;}.cls-10{fill:#106775;}.cls-11{fill:#0c5959;}</style></defs><title>Recurso 2</title><g id="Capa_2" data-name="Capa 2"><g id="Capa_1-2" data-name="Capa 1"><path class="cls-1" d="M61.25,57.67c-.29.84-.57,1.69-.87,2.53-1.76.06-2.51,1.4-3.23,2.67-4.52,7.91-10,15.11-15.44,22.42-2.79,3.77-5.82,3.86-9.52,2.74a140.62,140.62,0,0,1-17-6.3A135.39,135.39,0,0,1,1.33,74.24a2.94,2.94,0,0,1-1.12-1A2.87,2.87,0,0,1,.05,71.6a98,98,0,0,1,3.4-16.36c.78-2.71,1.61-5.42,2.38-8.13.45-1.6.77-3.22,1.2-4.82s1.24-2.92,1.49-4.45c.13-.73.08-1.48.2-2.21a14.69,14.69,0,0,1,1.57-3.76C12,28.24,12.25,24,14,20.4c1.21.37,3,1.4,4.23,1.4,8,3.54,16,7,23.91,10.59,4.72,2.13,9.37,4.4,14.15,6.4,4,1.68,9.83,2.43,12.64,6C66.46,49.16,63.12,53,61.25,57.67Z"/><path class="cls-2" d="M67.81,60.42a30.39,30.39,0,0,1-7.32-.15C56,59.76,51.57,58.65,47.08,58c-1.74-.26-3.62-1.05-5.34-1.49-1.45-.37-5-.87-6-2-1.5-1.74-.72-3.45,1-3,2.43.64,4.65,2,7,2.77,3.71,1.3,7.7,1.42,11.51,2.26,4.68,1,10.22,2.19,14.77.13a21.92,21.92,0,0,0,8.32-7.33c.57-.78,1.1-1.58,1.62-2.39,1.54-2.42,2.77-4.44.77-5.44-.18-.31-2.49-.5-2.68-.81,1.28,0,1.4-2.15,2.68-2.19,2.62,1.7,5,4,2.34,8.42a42.25,42.25,0,0,1-5.65,7.7c-2,2.08-4.44,4.46-7.28,5.3A13.55,13.55,0,0,1,67.81,60.42Z"/><path class="cls-3" d="M68.88,44.8c-3-3.83-7.95-3.55-11.88-5.46C44.23,33.14,31.15,27.57,18.18,21.8A43.07,43.07,0,0,0,14,20.4a16.63,16.63,0,0,1-.74-1.56c-.32-.55-.71-1.07-1-1.64a6,6,0,0,1-.35-3.75c.32-2.54,1.07-6.15,2.79-8.17s4.74-.77,6.69.24Q25.64,7.74,30,9.84c10.18,4.93,20.62,9.23,30.75,14.29,3,1.48,6,2.88,9,4.16q2.28,1,4.6,1.84c2.4.91,4.25,1.31,4.31,4.31a36.45,36.45,0,0,1-.35,4.17c-.09,1-.44,2.09.32,3-1.43.15-2.87,1.23-4.2,1.76A18.66,18.66,0,0,1,68.88,44.8Z"/><path class="cls-4" d="M8.22,10.49c0-.76.09-1.52.13-2.28,1.87-.53,2.7-3.82,5.44-2.06-.69,2.83-1.37,5.67-2.06,8.5C8.71,14.83,9.37,11.9,8.22,10.49Z"/><path class="cls-4" d="M81.25,38.93c-.15.81-.29,1.61-.44,2.41-2.39.3-3.81,3.69-7,1.44L77.37,34C81.15,34.25,80,37.28,81.25,38.93Z"/><path class="cls-5" d="M27.74,29.5c-.21,1.84-3.76,3.12-4,5-.2,1.54-10,41-21,39-4,.7,9.49-35,9.63-37.41.12-2,1.57-5.21,2.5-7.35.68-1.58,2.26-3.24,5.63-3.68C24.07,24.59,27.15,28.16,27.74,29.5Z"/><path class="cls-6" d="M4.45,11.78c.14-.38.3-.75.46-1.13A4.26,4.26,0,0,1,6.85,8.21a1.31,1.31,0,0,1,1.22,0c.58.4.19,1.65.15,2.24-.08,1.5-1.56,3.62-2.1,5.06C4.49,20,3.44,25.1,5.19,29.66c1.53,4,4.84,6.48,8.18,8.87,2.3,1.65,4.58,3.32,6.82,5,1.13.89,3.44,2,4.55,2.92a14.54,14.54,0,0,1,2,2c.28.47-1.59.38-1.65,1A7.93,7.93,0,0,1,21.22,48c-3.26-2-6.49-4.12-9.56-6.4-2.73-2-5.51-4.17-7.35-7.1C1.49,30,1.36,24.3,2.35,19.07A40.46,40.46,0,0,1,4.45,11.78Z"/><path class="cls-7" d="M46.91,17.63C41.25,15.07,35.57,12.55,30,9.84q-4.34-2.1-8.61-4.32c-1.95-1-4.91-2.34-6.69-.24s-2.47,5.63-2.79,8.17a6,6,0,0,0,.35,3.75c.29.57.68,1.09,1,1.64A16.63,16.63,0,0,0,14,20.4a43.07,43.07,0,0,1,4.2,1.4c7.35,3.27,14.73,6.48,22.07,9.77Z"/><g class="cls-8"><circle class="cls-9" cx="21.74" cy="5.5" r="3.5"/><circle class="cls-9" cx="25.74" cy="3.5" r="3.5"/><circle class="cls-9" cx="27.74" cy="7.5" r="3.5"/><circle class="cls-9" cx="33.74" cy="4.5" r="3.5"/><circle class="cls-9" cx="32.74" cy="9.5" r="3.5"/><circle class="cls-9" cx="34.74" cy="14.5" r="3.5"/><circle class="cls-9" cx="38.74" cy="8.5" r="3.5"/><circle class="cls-9" cx="45.74" cy="8.5" r="3.5"/><circle class="cls-9" cx="41.74" cy="13.5" r="3.5"/><circle class="cls-9" cx="41.74" cy="19.5" r="3.5"/><circle class="cls-9" cx="44.74" cy="25.5" r="3.5"/><circle class="cls-9" cx="46.74" cy="20.5" r="3.5"/><circle class="cls-9" cx="52.74" cy="18.5" r="3.5"/><circle class="cls-9" cx="58.74" cy="21.5" r="3.5"/><circle class="cls-9" cx="61.74" cy="25.5" r="3.5"/><circle class="cls-9" cx="66.74" cy="25.5" r="3.5"/><circle class="cls-9" cx="71.74" cy="28.5" r="3.5"/><circle class="cls-9" cx="76.74" cy="30.5" r="3.5"/><circle class="cls-9" cx="73.74" cy="24.5" r="3.5"/><circle class="cls-9" cx="69.74" cy="20.5" r="3.5"/><circle class="cls-9" cx="63.74" cy="14.5" r="3.5"/><circle class="cls-9" cx="64.74" cy="19.5" r="3.5"/><circle class="cls-9" cx="58.74" cy="14.5" r="3.5"/><circle class="cls-9" cx="55.74" cy="8.5" r="3.5"/><circle class="cls-9" cx="48.74" cy="9.5" r="3.5"/><circle class="cls-9" cx="51.74" cy="13.5" r="3.5"/><circle class="cls-9" cx="46.74" cy="14.5" r="3.5"/></g><polygon class="cls-10" points="13.74 18.5 71.74 44.28 68.3 45.8 13.79 21.5 13.74 18.5"/><rect class="cls-4" x="21.74" y="46.5" width="17" height="7" rx="3.5" ry="3.5" transform="translate(25.55 -8.24) rotate(26.56)"/><path class="cls-11" d="M36.28,49.11l-5.59-2.8-2.93,6.36,5.39,2.7a3.5,3.5,0,0,0,3.13-6.26Z"/></g></g></svg>