<svg xmlns="http://www.w3.org/2000/svg" viewBox="0 0 302 241"><defs><style>.cls-1{fill:#12a7c7;}.cls-2{fill:#17bdce;}</style></defs><title>Recurso 5</title><g id="Capa_2" data-name="Capa 2"><g id="Capa_1-2" data-name="Capa 1"><rect class="cls-1" width="302" height="241"/><path class="cls-2" d="M185.67,75.21a31.44,31.44,0,0,1,10.87,1.54,7.8,7.8,0,0,1,1.7.87,2.58,2.58,0,0,1,1.27,3.19c-1.45,7.28-2.91,14.56-4.29,21.86a2.2,2.2,0,0,1-1.85,2,27.92,27.92,0,0,1-14.15-.07,1.86,1.86,0,0,1-1.57-1.63c-1.33-7-2.74-14-4.12-21.05-.09-.43-.16-.87-.25-1.3a2.38,2.38,0,0,1,1.12-2.93,15.27,15.27,0,0,1,6.51-2.13A26.63,26.63,0,0,1,185.67,75.21Zm11.21,12.17c-2.78,2.88-4.27,3.87-6.95,4.6-.57.16-1.08.28-1.36.91a1.25,1.25,0,0,1-1.22.58c-.53,0-1,0-1.58,0a1.49,1.49,0,0,1-1.57-.86c-.17-.39-.49-.41-.81-.48a12.88,12.88,0,0,1-6.12-3.35c-.46-.46-1-.88-1.43-1.31a4.9,4.9,0,0,0,0,.5c.8,4,1.62,8.08,2.4,12.14a.94.94,0,0,0,.83.83,29.86,29.86,0,0,0,14.73-.07.86.86,0,0,0,.71-.78c.59-3.08,1.23-6.14,1.8-9.22A17,17,0,0,0,196.88,87.38Zm-22-5a11.61,11.61,0,0,0,6.9,8c1,.44,2.05,1.12,3.24,0,.59-.53,1.62-.14,2.44-.18a1.19,1.19,0,0,1,1,.46c.27.38.56.34.93.24A11.58,11.58,0,0,0,196,86.48a10.19,10.19,0,0,0,1.86-4.11A33.67,33.67,0,0,1,174.86,82.35Zm-.56-2.69a1.68,1.68,0,0,0,2.14,1.44c6.68-3,13.34-3.52,20,.08.5.27,1.4-.13,1.86-.8a1,1,0,0,0-.24-1.46,6.63,6.63,0,0,0-2.57-1.32,33.81,33.81,0,0,0-15.9-.6,12.24,12.24,0,0,0-4.15,1.42C174.9,78.73,174.39,79.07,174.3,79.66ZM195.42,82c-5.63-3.33-13.56-2.5-18,0A34.87,34.87,0,0,0,195.42,82Zm-9,22.4h.91a24.13,24.13,0,0,0,6.14-1c.69-.22.64-.79.57-1.2s-.53-.11-.78-.06a32.64,32.64,0,0,1-5.1.73,30.36,30.36,0,0,1-8.91-.76c-.18,0-.54-.26-.5.1s-.06,1,.69,1.23A26.15,26.15,0,0,0,186.4,104.43Zm.06-12.11v0c.24,0,.49,0,.74,0s.61-.16.61-.5-.25-.44-.58-.44c-.49,0-1,0-1.48,0-.29,0-.57.06-.57.44s.21.47.53.47Z"/><path class="cls-2" d="M109.55,198.32c4,0,8.06-.09,12.08,0a7,7,0,0,1,6.52,6.34,7.13,7.13,0,0,1-5.67,7.69,25.06,25.06,0,0,1-4.24.15c-1.48,0-2.95,0-4.42,0-.58,0-.74.13-.74.73,0,5.53,0,11.06,0,16.59,0,.81-.21,1-1,1-1.86-.06-3.72,0-5.59,0-.62,0-.79-.15-.79-.79,0-5.53,0-11.06,0-16.59,0-.73-.17-1-.94-1-2.33.06-4.67,0-7,0a7.12,7.12,0,0,1-1.27-14.12,11.22,11.22,0,0,1,1.74-.12h11.26Zm-.07,5.8c5.55,0,11.11,0,16.67,0,.65,0,.75-.12.52-.75a6,6,0,0,0-5.86-4H98.12a6.08,6.08,0,0,0-5.84,3.9c-.27.71-.1.83.6.83C98.41,204.11,103.94,204.12,109.48,204.12Zm-2.59,18.2c0,2.22,0,4.44,0,6.66,0,.51.08.75.67.73,1.28-.05,2.56,0,3.83,0,.42,0,.58-.09.58-.55q0-6.83,0-13.66c0-.42-.15-.5-.53-.5-1.28,0-2.55,0-3.83,0-.62,0-.73.2-.72.75C106.91,217.93,106.89,220.13,106.89,222.32Zm2.58-17.06h0c-2,0-4,0-6,0-.52,0-.65.14-.65.65a6,6,0,0,0,.66,3,4.18,4.18,0,0,0,4,2.51c1.46-.06,2.94,0,4.41,0a2.29,2.29,0,0,0,1.11-.26,5.34,5.34,0,0,0,2.93-5.27c0-.47-.12-.6-.6-.59C113.41,205.28,111.44,205.26,109.47,205.26Zm5.46,6,.19.11c1.94,0,3.89,0,5.83,0a6.31,6.31,0,0,0,2.43-.48,5.93,5.93,0,0,0,3.62-5.08c0-.25.14-.58-.35-.57h-9.09c-.33,0-.44.1-.43.43A7,7,0,0,1,114.93,211.26Zm-10.94.1a7,7,0,0,1-2.28-5.57c0-.56-.28-.54-.67-.53-2.81,0-5.61,0-8.41,0-.63,0-.73.19-.7.75a6,6,0,0,0,5.48,5.35C99.54,211.41,101.67,211.36,104,211.36Zm5.46,2.49c.67,0,1.33,0,2,0s.51-.34.5-.69.11-.67-.45-.66c-1.38,0-2.77,0-4.15,0-.54,0-.48.31-.48.64s-.1.74.5.7S108.76,213.85,109.45,213.85Z"/><path class="cls-2" d="M273.53,36.23l-.06,0c-.3,1.64-1.35,2.08-2.91,2-1.8,0-3.61.14-5.41.25a.91.91,0,0,1-1.08-.76c-.24-.84-.57-1.65-.93-2.67-.43,1.08-.81,2-1.13,2.87a.79.79,0,0,1-.87.58c-2.25,0-4.49-.13-6.74-.23a1.09,1.09,0,0,1-1.17-.93,10.11,10.11,0,0,0-.44-1.26,3.58,3.58,0,0,0-.64,1.28c-.18.47-.44.68-.93.6-1.92-.29-3.84-.56-5.75-.88-.87-.15-1-.56-.41-1.26A15.77,15.77,0,0,0,248.6,29c.33-1.6.43-3.24.63-4.87.16-1.26.33-2.53.5-3.79a2.52,2.52,0,0,1,2.19-2.26,6.63,6.63,0,0,1,1-.06h20.92c2,0,2.86.81,3.12,2.78.33,2.42.6,4.84.9,7.26a15.14,15.14,0,0,0,3.52,7.59c.25.31.69.58.51,1.06s-.68.43-1.07.48c-1.79.25-3.59.42-5.37.7-.95.15-1.47-.15-1.64-1.09A.71.71,0,0,0,273.53,36.23Zm1.88.52c1.48-.19,2.8-.4,4.12-.52.67-.06.67-.19.3-.7a15.77,15.77,0,0,1-3.15-7.59c-.06-.61-.25-.74-.85-.74-8,0-16.06,0-24.09,0-.55,0-1.21-.14-1.61.12s-.19.92-.26,1.41a2.1,2.1,0,0,1-.06.24,16.86,16.86,0,0,1-3.09,6.66c-.26.35-.38.53.2.61,1.27.17,2.52.38,3.78.58a.49.49,0,0,0,.62-.39c.21-.63.46-1.25.73-1.86.15-.35.17-.89.75-.85s.54.49.67.85c.24.71.53,1.4.74,2.12.1.36.24.5.61.51,1.83.06,3.66.12,5.49.21a.81.81,0,0,0,.95-.67c.38-1.09.83-2.16,1.26-3.24.12-.32.23-.65.65-.65s.53.33.64.66c.37,1.07.76,2.14,1.11,3.22.14.44.31.69.85.65,1.91-.14,3.82-.24,5.74-.32a.56.56,0,0,0,.57-.47c.3-.77.6-1.55.91-2.32a.65.65,0,0,1,.6-.49c.33,0,.48.23.58.51.21.63.44,1.25.64,1.88C274.94,36.57,275.09,36.87,275.41,36.75ZM263.36,19.19h-10.5c-1.48,0-1.92.39-2.1,1.87-.13,1.1-.24,2.21-.41,3.3-.27,1.73-.29,1.7,1.46,1.72.55,0,.71-.2.78-.7.15-1.12.4-2.24.55-3.36.1-.69.42-.9,1.11-.9,3.7,0,7.39,0,11.09,0,2.39,0,4.78,0,7.17,0,.62,0,.9.21,1,.84.1.82.28,1.64.42,2.46.29,1.67.29,1.66,2,1.64.44,0,.57-.11.51-.55-.22-1.51-.38-3-.6-4.54s-.6-1.79-2.14-1.79Zm-.09,6.86c3,0,6.05,0,9.08,0,.52,0,.69-.12.57-.65a20.93,20.93,0,0,1-.4-2.37c-.06-.69-.37-.82-1-.82-5.22,0-10.44,0-15.66,0-1.54,0-1.54,0-1.82,1.55-.1.55-.16,1.11-.31,1.64s0,.63.55.63C257.27,26,260.27,26.06,263.27,26.05Z"/><path class="cls-2" d="M263.36,200.22H280.2c1.21,0,1.24,0,1.25,1.27,0,1.63.11,3.27-.92,4.71a5,5,0,0,1-4,2.35c-2.89.08-5.78.07-8.67,0a1.48,1.48,0,0,0-1.24.62,5,5,0,0,0-1.12,4c.35,4,.54,8.08.74,12.13a3.35,3.35,0,0,1-3.48,3.53,3.39,3.39,0,0,1-3.26-3.66c.27-4.52.51-9,.78-13.56.08-1.24-.94-1.88-1.49-2.77-.31-.5-.92-.24-1.4-.24-2.14,0-4.28,0-6.41,0a5.39,5.39,0,0,1-5.77-5.7v-2a.59.59,0,0,1,.66-.68h17.5Zm-16.77,4.28a4.24,4.24,0,0,0,4.15,3c2.56,0,5.12,0,7.67,0,.38,0,.76-.05,1.06.32a7.05,7.05,0,0,1,1.92,5.64c-.49,3.93-.55,7.92-.77,11.88a2.31,2.31,0,0,0,1.64,2.35,2.27,2.27,0,0,0,2.51-1,3.59,3.59,0,0,0,.26-2.35c-.2-3.57-.27-7.17-.67-10.72a6.5,6.5,0,0,1,1.59-5.4,1.72,1.72,0,0,1,1.45-.7c2.78,0,5.56,0,8.34,0a4.29,4.29,0,0,0,3.93-2.07c.15-.24.46-.52.28-.81s-.52-.09-.78-.09H246.59Zm16.66-1.16H279.5c.26,0,.68.16.74-.15a3.82,3.82,0,0,0,0-1.65c-.11-.37-.64-.17-1-.17H248.09c-.45,0-.89,0-1.34,0s-.46.06-.42.4a2.69,2.69,0,0,1,0,.75c-.11.68.12.85.83.85C252.52,203.33,257.88,203.34,263.25,203.34Z"/><path class="cls-2" d="M98.92,154.39c0-3.75,0-7.5,0-11.25a4.07,4.07,0,0,1,2.53-4.11.65.65,0,0,0,.42-.7,15.19,15.19,0,0,1,0-1.66,1.9,1.9,0,0,1,1.91-1.73c1.38,0,2.77,0,4.16,0a1.88,1.88,0,0,1,2,2,3,3,0,0,0,1.35,2.8,53.54,53.54,0,0,1,7.43,7.84,6.27,6.27,0,0,1,1.19,3.92c.14,4.92.1,9.84,0,14.76a3.89,3.89,0,0,1-3.73,3.69q-6.8.06-13.59,0a3.93,3.93,0,0,1-3.75-3.93c0-3.89,0-7.78,0-11.67Zm10.64,4.07c-2.94,0-5.89,0-8.83,0-.54,0-.7.13-.69.68,0,2.22,0,4.44,0,6.67a2.84,2.84,0,0,0,3,3q6.41,0,12.82,0a2.88,2.88,0,0,0,3-3.13c0-2.2,0-4.39,0-6.58,0-.55-.15-.7-.69-.69C115.33,158.47,112.45,158.46,109.56,158.46Zm-.23-8.17h0c2.89,0,5.78,0,8.67,0,.52,0,.71-.09.5-.65a4.38,4.38,0,0,0-.68-1.41,73.44,73.44,0,0,0-7.42-7.85,1.9,1.9,0,0,0-1.27-.56c-2,0-4,0-6.08,0a2.9,2.9,0,0,0-3,3.09c0,2.23,0,4.45,0,6.67,0,.57.19.7.72.69C103.61,150.28,106.47,150.29,109.33,150.29Zm.14,7h8.66c.39,0,.79.11.78-.54,0-1.55,0-3.1,0-4.66,0-.44-.1-.69-.65-.69q-8.79,0-17.58,0c-.55,0-.63.23-.62.69,0,1.5,0,3,0,4.5,0,.62.22.72.78.71C103.7,157.29,106.58,157.31,109.47,157.31ZM106,138.71h1.5c1.58,0,1.57,0,1.45-1.6a1,1,0,0,0-1.12-1.07c-1.2,0-2.39,0-3.58,0-1,0-1.21.27-1.23,1.24,0,.28,0,.56,0,.84,0,.44.15.58.58.56C104.37,138.69,105.17,138.71,106,138.71Z"/><path class="cls-2" d="M115.89,71.58c1.33,0,2.55,0,3.77,0,.66,0,1,.22,1,.91,0,1,0,2,0,3,0,.67-.32.88-.92.87-1.28,0-2.56,0-3.83,0-.56,0-.72.11-.78.71a5.69,5.69,0,0,0,.9,3.3c.5,1,.32,1.23-.76,1.23-.61,0-1.23,0-1.84,0-.2,0-.56-.19-.59.22s-.16.7.17.93c2.82,2,3.67,5.09,4.33,8.24s1.2,6.09,1.79,9.13-1.38,6.57-4.39,8.12a6.93,6.93,0,0,1-3.26.89,33.53,33.53,0,0,1-6.72-.19,8.23,8.23,0,0,1-6.36-7.87,23.2,23.2,0,0,1,.73-4.25A73.43,73.43,0,0,1,101,88.13a9.72,9.72,0,0,1,3.45-5.26.8.8,0,0,0,.3-.8c0-1.08,0-2.16,0-3.25a6.92,6.92,0,0,1,6.45-7.09C112.78,71.54,114.39,71.63,115.89,71.58ZM108.75,108c1.06,0,2.11,0,3.16-.08,3.71-.47,6.67-4.25,6-7.75-.47-2.53-1-5-1.45-7.58-.1-.53-.27-.54-.71-.41a11.24,11.24,0,0,1-7.18-.16,11.86,11.86,0,0,0-6.73-.23.91.91,0,0,0-.82.84c-.26,1.56-.62,3.1-.89,4.65a19.06,19.06,0,0,0-.65,4,7.2,7.2,0,0,0,5.35,6.48A18.12,18.12,0,0,0,108.75,108Zm3.66-16.45a12.57,12.57,0,0,0,3.11-.46c.52-.13.64-.35.5-.88a17.32,17.32,0,0,0-1.93-4.76,6.52,6.52,0,0,0-10.46-.26,16.51,16.51,0,0,0-2,4.7c-.2.67-.08.82.6.67a12.79,12.79,0,0,1,7,.45A9.83,9.83,0,0,0,112.41,91.58Zm3.41-16.36c.66,0,1.1,0,1.54,0s.56-.13.49-.47c-.12-.66.3-1.4-.27-2,0,0-.1,0-.16,0a41.45,41.45,0,0,0-6.4.18,5.66,5.66,0,0,0-5,4.19c-.2.7-.16,1,.69,1a17.53,17.53,0,0,1,3.24,0,2.92,2.92,0,0,0,3.16-1.52C113.79,75.49,114.68,74.84,115.82,75.22ZM111.65,82c0-.78,0-1.5,0-2.22,0-.49-.15-.62-.61-.61-1.5,0-3,0-4.5,0-.59,0-.74.21-.7.73,0,.19,0,.39,0,.58,0,.47-.16,1.08.07,1.37s.85-.1,1.3-.12l.25,0A10.76,10.76,0,0,1,111.65,82Zm2.36-4.6c-.85.84-1.42,1.53-1.21,2.56,0,.2-.07.48.3.45s1,.13,1.51-.11c0,0,0-.21-.06-.3A3.53,3.53,0,0,1,114,77.42ZM119.5,74c-.23-.38.33-1.12-.29-1.15-.43,0-.23.74-.2,1.14s-.36,1.13.28,1.16C119.68,75.14,119.34,74.37,119.5,74Z"/><path class="cls-2" d="M188.55,17.42c0,4,0,8,0,12,0,.62.15.79.77.79a2.12,2.12,0,0,1,2.27,2.45.66.66,0,0,0,.2.59c2.38,2.25,2.83,5.11,2.57,8.19a16.39,16.39,0,0,1-2.11,7.36,10.3,10.3,0,0,1-7.32,5c-.88.16-1.16-.16-.86-1a4.39,4.39,0,0,0-.91-4.27c-.73-1-1.6-1.92-2.42-2.87a8.89,8.89,0,0,1,.11-12.16,1.17,1.17,0,0,0,.36-.94,2.1,2.1,0,0,1,2.19-2.37c.73,0,.84-.24.84-.9,0-7.89,0-15.78,0-23.68a3.39,3.39,0,0,1,.5-1.9,1.94,1.94,0,0,1,3.49.23,3.41,3.41,0,0,1,.34,1.61Zm-3.2,35.18c.41-.12.69-.21,1-.28a1.17,1.17,0,0,0,1-1.4c-.09-1.47,0-3,0-4.42,0-1.28,0-2.56,0-3.84,0-.37.1-.69.51-.72s.62.29.62.71v.58q0,3.68,0,7.34c0,.16-.09.36.07.47s.34-.09.48-.2a9.59,9.59,0,0,0,2.67-3.36A17.8,17.8,0,0,0,193.22,39a7.06,7.06,0,0,0-1.7-4.33c-.33-.41-.63-.64-1.15-.24a2.15,2.15,0,0,1-1.37.26h-5.25a2.21,2.21,0,0,1-1.37-.27c-.44-.32-.68-.14-1,.2a8.31,8.31,0,0,0-1.86,5.31A6.47,6.47,0,0,0,181.68,45V42c0-.42-.05-.91.55-.93s.6.47.6.9c0,1.25,0,2.5,0,3.75a1.54,1.54,0,0,0,.43,1.11C184.66,48.45,185.69,50.22,185.35,52.6Zm2.05-32.89h0c0-3.28,0-6.55,0-9.83,0-.66-.19-.83-.78-.72a1.41,1.41,0,0,1-.41,0c-.75-.15-.89.17-.89.88,0,6.27,0,12.55,0,18.82,0,1.35,0,1.32,1.36,1.35.62,0,.69-.21.69-.76C187.39,26.21,187.4,23,187.4,19.71Zm-1,11.64c-1,0-1.94,0-2.91,0-.66,0-1.11.32-1.1,1.06a1,1,0,0,0,1.1,1.09c2,0,3.93,0,5.9,0a1.08,1.08,0,1,0-.08-2.15Zm1-24.87h0a13,13,0,0,0-.13-1.65c-.1-.47-.37-.92-.93-.92s-.73.43-.89.86a6,6,0,0,0-.11,2c0,1.27,0,1.22,1.25,1.29.68,0,.87-.19.78-.81A6.26,6.26,0,0,1,187.41,6.48Z"/><path class="cls-2" d="M111.81,26c0,4.42,0,8.84,0,13.26,0,.71.2.86.87.84,1.92,0,3.84,0,5.75,0,2.72,0,4.25,1.61,4.26,4.34,0,2.43,0,2.43-2.42,2.43H97.49c-1.18,0-1.22,0-1.22-1.21a15.3,15.3,0,0,1,.06-2.25,3.87,3.87,0,0,1,3.9-3.31c2,0,3.94,0,5.92,0,.77,0,1-.15,1-1,0-8.65,0-17.29,0-25.93a4.62,4.62,0,0,1,.2-1.73,2.36,2.36,0,0,1,2.29-1.73,2.56,2.56,0,0,1,2.09,2.1,6.51,6.51,0,0,1,.08,1.25Q111.82,19.57,111.81,26Zm-2.34,19.7c3.78,0,7.56,0,11.34,0,.58,0,.82-.16.71-.74a2.78,2.78,0,0,1,0-.5c0-1.08,0-1.08-1.09-1.08H99c-1.59,0-1.55,0-1.6,1.57,0,.68.24.75.81.74C102,45.71,105.72,45.72,109.47,45.72Zm1.17-17.26V18.13c0-1.44,0-1.39-1.42-1.46-.79,0-.94.22-.94,1,0,6.94,0,13.89,0,20.84,0,1.62,0,1.59,1.62,1.64.6,0,.74-.15.74-.73C110.63,35.74,110.64,32.1,110.64,28.46Zm10.2,13.79a3.31,3.31,0,0,0-2.62-1c-5.36,0-10.72,0-16.08,0-.72,0-1.45,0-2.17,0a2.5,2.5,0,0,0-1.82,1ZM110.65,13.72a6.67,6.67,0,0,0-.12-1.81c-.18-.53-.48-1-1.08-1s-.85.46-1,1a2,2,0,0,0-.13.57c0,.88,0,1.77,0,2.65,0,.32.09.42.42.45C110.65,15.73,110.65,15.74,110.65,13.72Z"/><path class="cls-2" d="M280.28,154.67c0,.62-.4.63-.78.66a10.76,10.76,0,0,0-4.23,1.08,8.6,8.6,0,0,0-4.68,7c-.06.52-.09,1.05-.12,1.58s0,.81-.58.81-.58-.45-.58-.83a12.28,12.28,0,0,0-.47-3.36c-1.14-3.73-4.07-5.95-8.31-6.3h-.25c-.37,0-.73-.05-.75-.57s.36-.57.73-.58a10.37,10.37,0,0,0,3.48-.74c3.41-1.37,5.08-4,5.5-7.58.05-.44,0-.88.07-1.33s0-.9.63-.87.51.47.53.87a13.12,13.12,0,0,0,.6,3.68,8.71,8.71,0,0,0,7.88,5.92,7.53,7.53,0,0,1,.83.08A.54.54,0,0,1,280.28,154.67Zm-16.76.11a9.81,9.81,0,0,1,6.39,6.34,9.81,9.81,0,0,1,6.47-6.37,9.67,9.67,0,0,1-6.44-6.26C268,152.32,267.67,152.66,263.52,154.78Z"/><path class="cls-2" d="M252.45,155.37c.57,0,.64.37.65.8a5.6,5.6,0,0,0,1.07,3.35,4.91,4.91,0,0,0,3.43,1.81c.45.06,1.07-.07,1.08.61s-.64.54-1.07.61a4.86,4.86,0,0,0-4.5,4.91c0,.17,0,.33,0,.5s-.14.52-.5.55A.52.52,0,0,1,252,168c-.07-.49,0-1-.14-1.49a4.81,4.81,0,0,0-4.59-4c-.42-.05-.89,0-.87-.62s.46-.52.85-.56a4.81,4.81,0,0,0,4.7-4.95C251.94,156,251.89,155.49,252.45,155.37Zm3,6.53a6,6,0,0,1-2.95-2.88,6,6,0,0,1-2.9,3,5.88,5.88,0,0,1,2.93,2.84,8.8,8.8,0,0,1,1.2-1.67A10.27,10.27,0,0,1,255.44,161.9Z"/><path class="cls-2" d="M263.55,143a.63.63,0,0,1-.61.59,7.77,7.77,0,0,0-1.08.13,4.8,4.8,0,0,0-3.91,4.64c0,.22,0,.44,0,.66a.57.57,0,0,1-1.13,0c-.08-.55-.05-1.1-.18-1.65a4.7,4.7,0,0,0-4.3-3.76l-.5,0c-.38,0-.65-.23-.62-.63s.26-.49.62-.53a7.19,7.19,0,0,0,1.47-.27,4.66,4.66,0,0,0,3.47-4.55,5.62,5.62,0,0,1,0-.58c.06-.31.17-.6.57-.59s.56.24.59.64a9.17,9.17,0,0,0,.25,1.81c.63,2.27,2.28,3.28,4.51,3.53C263.09,142.46,263.49,142.46,263.55,143Zm-6.19-2.91a7.23,7.23,0,0,1-1.19,1.73,16.88,16.88,0,0,1-1.66,1.22,6.39,6.39,0,0,1,2.87,2.83,6.2,6.2,0,0,1,2.94-2.89A5.72,5.72,0,0,1,257.36,140.07Z"/><path class="cls-2" d="M258.09,91.55c-2.7,0-5.39,0-8.09,0-.72,0-1.07-.21-1.06-1,0-2.17,0-4.33,0-6.5,0-.64.26-.88.9-.87,1.3,0,2.61,0,3.92,0a.73.73,0,0,0,.85-.56,2.54,2.54,0,0,1,2-1.71c.9-.17.46-.81.51-1.24s-.42-.39-.7-.39c-1.64,0-3.28,0-4.92,0a2.56,2.56,0,0,1-2.27-3.74,2.7,2.7,0,0,1,2.48-1.43q7.46,0,14.92,0a2.76,2.76,0,0,1,2.77,2,2.58,2.58,0,0,1-2.49,3.2c-1.67,0-3.34,0-5,0-.32,0-.76-.09-.64.46.09.39-.42,1,.49,1.13A2.6,2.6,0,0,1,264,82.66a.74.74,0,0,0,.84.55,45.78,45.78,0,0,1,5.5.11c4.12.5,6.29,3.27,7.1,7.28a40.79,40.79,0,0,1,.29,6.9c0,.59-.27.83-.87.83-2.17,0-4.33,0-6.5,0-.67,0-.9-.28-.88-.9,0-.86,0-1.72,0-2.58a2.86,2.86,0,0,0-3.07-3.24c-2.78-.07-5.55,0-8.33,0Zm15.43,2.38c.83,0,1.67,0,2.5,0,.44,0,.56-.14.55-.57a15.64,15.64,0,0,0-.34-3,7.05,7.05,0,0,0-7.42-6c-1.58,0-3.16,0-4.75,0-.62,0-.95-.14-1-.86A1.58,1.58,0,0,0,261.32,82c-1.36,0-2.72,0-4.08,0a1.58,1.58,0,0,0-1.64,1.45c0,.78-.46.91-1.1.91-1.22,0-2.44,0-3.66,0-.56,0-.78.11-.76.73,0,1.44.07,2.89,0,4.33-.05.82.15,1,1,1,4.94,0,9.89,0,14.83,0,1.78,0,3.57.43,4.22,2.2.5,1.33,1.21,1.43,2.3,1.31C272.79,93.9,273.16,93.93,273.52,93.93ZM261.1,75.26a8.17,8.17,0,0,1,.15,2.45c0,.28,0,.48.39.48,1.72,0,3.44,0,5.16,0a1.43,1.43,0,1,0,0-2.86C264.9,75.22,263,75.26,261.1,75.26Zm-6.79,0c-.84,0-1.67,0-2.5,0a1.47,1.47,0,1,0,0,2.91c1.61,0,3.22,0,4.83,0,.46,0,.55-.19.55-.6a7.39,7.39,0,0,1,.09-2c.12-.44-.21-.34-.43-.35Zm19.32,22h1.58c1.4,0,1.37,0,1.37-1.43,0-.52-.13-.72-.69-.69-1.31,0-2.61,0-3.91,0s-1.35,0-1.38,1.42c0,.55.17.73.7.71C272.08,97.18,272.85,97.2,273.63,97.2ZM260.1,78.26h0c0-.64,0-1.28,0-1.92s-.26-1-.89-1.06-.91.46-.91,1c0,1.36,0,2.72,0,4.07,0,.19,0,.37.23.46,1,.34,1.59-.07,1.58-1.11Z"/><path class="cls-2" d="M273.89,106.64a2.68,2.68,0,0,1-2.52-3.86,21.21,21.21,0,0,1,1.94-3.19c.4-.56.8-.53,1.18,0,.69,1,1.32,2,1.92,3.1A2.72,2.72,0,0,1,273.89,106.64Zm0-5.84a14.25,14.25,0,0,0-1.58,2.68,1.33,1.33,0,0,0,.55,1.66,1.64,1.64,0,0,0,2.06,0,1.37,1.37,0,0,0,.56-1.68A17,17,0,0,0,273.9,100.8Z"/><path class="cls-2" d="M186.36,170.64H178.6c-2.06,0-3.18-1-3.34-3-.33-4.46-.6-8.93-.9-13.39q-.48-6.94-1-13.88c0-.25,0-.5,0-.75a2.6,2.6,0,0,1,2.6-2.84c1.42,0,2.84,0,4.25,0a.82.82,0,0,0,.93-.58,2.81,2.81,0,0,1,2.8-1.85c1.8,0,3.61,0,5.42,0a2.86,2.86,0,0,1,2.8,1.85.82.82,0,0,0,.93.59c1.17,0,2.34,0,3.5,0a2.81,2.81,0,0,1,2.84,3.12c-.59,7.68-1.06,15.36-1.57,23-.11,1.63-.21,3.27-.33,4.9a3,3,0,0,1-3.17,2.84C191.7,170.65,189,170.64,186.36,170.64Zm.12-26.48h0c-3.64,0-7.28,0-10.92,0-.59,0-.75.16-.7.75.19,2.35.33,4.71.49,7.06q.48,6.85.93,13.72c0,.47.14.65.67.65q9.47,0,18.92,0c.53,0,.63-.17.66-.66q.66-10.35,1.39-20.7c0-.67-.11-.83-.77-.83C193.59,144.17,190,144.16,186.48,144.16Zm-.12-1.13h0c3.69,0,7.38,0,11.08,0,.47,0,.62-.12.64-.58,0-.81.08-1.61.15-2.41.14-1.62-.37-2.17-2-2.17H177.48c-.5,0-1,0-1.5,0a1.44,1.44,0,0,0-1.46,1.64c0,.86.16,1.72.15,2.58,0,.69.18.94.94.93C179.19,143,182.77,143,186.36,143Zm.09,24.45h0c-3.11,0-6.23,0-9.34,0-.73,0-.78.27-.58.83a1.8,1.8,0,0,0,1.91,1.19h15.83a1.82,1.82,0,0,0,2-1.18c.22-.56.18-.84-.56-.84C192.62,167.5,189.53,167.48,186.45,167.48Zm-4.34-30.73h8.6c.4,0,.42-.17.23-.46a1.91,1.91,0,0,0-1.72-.83c-1.72,0-3.44,0-5.17,0A2,2,0,0,0,182.11,136.75Z"/><path class="cls-2" d="M186.47,149.91c1.79-.63,2.6.29,3,1.81.1.33.2.65.71.62.34,0,.4.32.23.62-.36.59-.71,1.19-1.09,1.77-.1.16-.25.34-.46.31a10.17,10.17,0,0,1-2.49-.6c-.33-.13-.27-.44,0-.67s.1-.47-.06-.64c-.31-.3-.36.12-.45.24-1.19,1.39-1.19,1.4-2.67.28-1.17-.88-1.17-.88-.25-2,.07-.09.14-.17.2-.26C184,150.18,184.9,149.28,186.47,149.91Zm.81.69c-.28,0-.39,0-.5,0-.64,0-1,0-.51.76a12.62,12.62,0,0,1,1.2,2.19.87.87,0,0,0,1.24.54.91.91,0,0,0,.39-1.33,5.29,5.29,0,0,1-.55-1.21C188.3,150.86,188,150.34,187.28,150.6Zm-2.36-.06c-.55.66-1,1.24-1.51,1.8-.15.18-.19.32,0,.47s.63.46.93.7.28.09.42,0a1.67,1.67,0,0,0,.46-2.4Z"/><path class="cls-2" d="M183.5,161.39A2,2,0,0,1,181,160a1,1,0,0,0-.19-.27c-1.22-1.23-1.49-2.5-.17-3.84.15-.15.33-.38.19-.6-.47-.75,0-.78.56-.8,2.39-.11,2.38-.12,3.1,2.16.15.47.21.87-.51.72-.38-.08-.42.24-.45.44s.24.22.41.25l.41,0c1.46.12,1.47.12,1.44,1.55,0,2,.37,1.75-1.76,1.77Zm-1.84-1.92c.77-1,1.1-2.16,1.77-3.17.19-.3-.07-.84-.35-1a.86.86,0,0,0-1.14.11,8,8,0,0,0-1.36,2.26c-.17.56.61,1.05.89,1.61A1.07,1.07,0,0,0,181.66,159.47Zm2.07,1.15c.37-.11,1,.27,1.22-.21a1.61,1.61,0,0,0-.09-1.5,3.78,3.78,0,0,0-1.92,0c-.2.5-.81,1-.59,1.48s.8.12,1.23.19Z"/><path class="cls-2" d="M190.07,161.39c-.59.06-1.26-.24-1.67.53-.11.21-.44,0-.59-.23L186.7,160a.56.56,0,0,1,.05-.81c.59-.61.86-1.52,1.72-1.84.17-.07.27.22.34.4.13.35.44.24.63.15s.05-.32,0-.48a1.09,1.09,0,0,0-.08-.15c-.78-1.51-.78-1.51.77-2.37s1.2-.88,2.14.65a3.38,3.38,0,0,1,.07,4,3.07,3.07,0,0,0-.2.45C191.51,161.39,191.51,161.39,190.07,161.39Zm-.66-.78c.47,0,.83,0,1.19,0a.47.47,0,0,0,.51-.31c.19-.43.39-.86.58-1.28s0-.44-.32-.41c-1,.07-2.09.1-3.14.2-.49.05-.75.82-.52,1.26C188.13,161,188.9,160.5,189.41,160.61Zm1.83-2.8c1.15,0,1.15,0,.64-1a6.57,6.57,0,0,0-.47-1c-.11-.17-.09-.62-.46-.42s-1.09.32-1.24.85S190.66,157.82,191.24,157.81Z"/><path class="cls-2" d="M203.58,214.51v4.92c0,2.29-.76,3.42-2.89,4.33a12.45,12.45,0,0,1-7,.71,45.71,45.71,0,0,0-14.25,0,13,13,0,0,1-7.36-.72,4.22,4.22,0,0,1-2.89-4.36c.12-3.28.11-6.56,0-9.83a4,4,0,0,1,2.54-4,12.26,12.26,0,0,1,7.07-1c2.29.25,4.57.57,6.87.7a42.42,42.42,0,0,0,6.55-.52c2.37-.22,4.74-.59,7.1.09a9.29,9.29,0,0,1,2.58,1.13,3.53,3.53,0,0,1,1.73,3.2c-.06,1.78,0,3.56,0,5.33Zm-33.24-3.4c0,3,0,6,0,8.87a2.36,2.36,0,0,0,1,2.05,6.53,6.53,0,0,0,1.61.85,12.71,12.71,0,0,0,6.5.41,44.78,44.78,0,0,1,14,0,11.28,11.28,0,0,0,7.08-.77c.93-.47,1.85-1,1.86-2.24,0-2.86,0-5.73,0-8.59,0-.57-.21-.44-.52-.22a8.3,8.3,0,0,1-1.7.88,15.29,15.29,0,0,1-7.39.44,38.76,38.76,0,0,0-7.05-.56c-2.41.16-4.81.47-7.21.72C175.69,213.25,172.92,213,170.34,211.11Zm25.41.82a9.35,9.35,0,0,0,5.72-1.54,1.82,1.82,0,0,0,.08-3.19,8.72,8.72,0,0,0-6.23-1.57c-2.41.17-4.81.47-7.21.71-3.05.31-6-.24-9-.59-2.56-.29-5-.27-7.35,1.08-1.82,1.07-1.83,2.74,0,3.83a8.89,8.89,0,0,0,3.94,1.21,40.25,40.25,0,0,0,6.4-.43,30.57,30.57,0,0,1,6-.3C190.65,211.44,193.3,211.68,195.75,211.93Z"/><path class="cls-2" d="M185.19,218.58a1.29,1.29,0,0,1,1.2,1.33,1.23,1.23,0,0,1-1.25,1.18,1.26,1.26,0,0,1-1.25-1.28A1.29,1.29,0,0,1,185.19,218.58Z"/><path class="cls-2" d="M174.44,214.69a1.28,1.28,0,0,1,1.22,1.23,1.3,1.3,0,0,1-1.27,1.27,1.24,1.24,0,0,1-1.24-1.28A1.21,1.21,0,0,1,174.44,214.69Z"/><path class="cls-2" d="M194.8,214a1.17,1.17,0,0,1,1.25,1.23,1.25,1.25,0,0,1-1.16,1.27,1.34,1.34,0,0,1-1.34-1.31A1.26,1.26,0,0,1,194.8,214Z"/><path class="cls-2" d="M193.57,219.89a.88.88,0,0,1-1,.89.94.94,0,0,1,.08-1.87A.9.9,0,0,1,193.57,219.89Z"/><path class="cls-2" d="M181.56,215.92a.92.92,0,0,1-1-.95.9.9,0,0,1,1-.93.87.87,0,0,1,.93.94A.85.85,0,0,1,181.56,215.92Z"/><path class="cls-2" d="M199.34,219.18a.7.7,0,0,1-.7.67.65.65,0,0,1-.72-.72.64.64,0,0,1,.68-.68A.7.7,0,0,1,199.34,219.18Z"/><path class="cls-2" d="M188.9,216a.61.61,0,0,1-.66.62.64.64,0,0,1-.72-.71.66.66,0,0,1,.65-.71C188.6,215.2,188.89,215.46,188.9,216Z"/><path class="cls-2" d="M179.53,219.78c-.05.5-.27.78-.74.76a.62.62,0,0,1-.65-.68c0-.49.24-.7.71-.69A.65.65,0,0,1,179.53,219.78Z"/><path class="cls-2" d="M24,156V145.25a3.33,3.33,0,0,1,3.6-3.65c.67,0,.82-.19.8-.83,0-1.77,0-3.55,0-5.33,0-.68.25-.95.93-.94H40.24c.59,0,.88.22.86.83,0,.8,0,1.61,0,2.41s-.21,1-.91.93c-1,0-1.94,0-2.92,0-.41,0-.63.09-.56.55,0,.16,0,.33,0,.5,0,.58-.18,1.27.07,1.72s1,.11,1.54.21a3.37,3.37,0,0,1,2.75,3.22c0,2.25,0,4.5,0,6.75,0,5,0,10.07,0,15.1,0,2.36-1.28,3.69-3.64,3.72-3.27,0-6.56,0-9.84,0-2.32,0-3.61-1.4-3.62-3.75V156Zm15.94.05h0c0-3.61,0-7.22,0-10.83a2.24,2.24,0,0,0-2.53-2.5H27.84c-1.91,0-2.72.82-2.72,2.75v12.75c0,2.78,0,5.56,0,8.34,0,1.84.86,2.72,2.68,2.73,3.22,0,6.45,0,9.67,0a2.41,2.41,0,0,0,2.5-2.49C39.91,163.23,40,159.64,40,156.06Zm-7.3-17.4c-.27,0-.55,0-.83,0-.74.05-1.71-.32-2.15.15s-.06,1.43-.14,2.17c-.05.51.18.62.62.61h3.16c2.39,0,2.38,0,2.27-2.42,0-.4-.12-.53-.52-.52C34.26,138.68,33.46,138.66,32.65,138.66Zm-.16-1.15h1.92c1.18,0,1.16,0,1.17-1.2,0-.47-.06-.69-.62-.68-1.61,0-3.22,0-4.83,0-.5,0-.64.17-.59.62a3.75,3.75,0,0,1,0,.67c-.06.48.13.62.61.59C30.93,137.48,31.71,137.51,32.49,137.51Zm5.84-1.86c-1.66,0-1.63,0-1.62,1.31,0,.43.11.59.56.56a10.05,10.05,0,0,1,1.9,0c.71.08.78-.22.82-.83.06-.87-.22-1.21-1.08-1.06A2.81,2.81,0,0,1,38.33,135.65Z"/><path class="cls-2" d="M26.59,156v-6.24a3.38,3.38,0,0,1,3.58-3.6h4.91a3.31,3.31,0,0,1,3.42,3.34q.06,6.54,0,13.07a3.29,3.29,0,0,1-3.41,3.36c-1.66,0-3.33,0-5,0a3.38,3.38,0,0,1-3.51-3.6Zm10.79,0h0c0-2.11,0-4.22,0-6.33a2.22,2.22,0,0,0-2.32-2.39c-1.66,0-3.33,0-5,0a2.22,2.22,0,0,0-2.31,2.39q0,6.3,0,12.59a2.29,2.29,0,0,0,2.6,2.53h4.34a2.36,2.36,0,0,0,2.7-2.69Z"/><path class="cls-2" d="M18.4,214.53V198.28c0-1.12,0-1.15,1.11-1.15q13.08,0,26.17,0c.73,0,1,.22,1,1q0,16.33,0,32.67c0,1.15-.08,1.21-1.25,1.21H19.71c-1.27,0-1.31-.05-1.31-1.3V214.53Zm1.16,3.2c0,4.08,0,8.17,0,12.26,0,.67.13.88.85.88q12.13,0,24.27,0c.73,0,.93-.17.92-.91q0-12.22,0-24.44c0-.73-.17-.91-.91-.91q-12.18,0-24.35,0c-.63,0-.78.16-.78.78C19.57,209.5,19.56,213.61,19.56,217.73Zm16.27-19.45v0c-3.08,0-6.16,0-9.24,0-.53,0-.72.12-.7.69.05,1.33,0,2.66,0,4,0,.45.14.57.57.57H45c.46,0,.63-.12.62-.61,0-1.33,0-2.66,0-4,0-.53-.17-.64-.67-.64C41.88,198.29,38.86,198.28,35.83,198.28Zm-11.07,2.65h0c0-.72,0-1.44,0-2.16,0-.42-.14-.52-.53-.52-1.39,0-2.77,0-4.16,0-.43,0-.52.16-.52.54,0,1.41,0,2.83,0,4.25,0,.37.14.47.49.46,1.41,0,2.83,0,4.25,0,.36,0,.48-.13.48-.48C24.75,202.32,24.76,201.63,24.76,200.93Z"/><path class="cls-2" d="M32.48,206.86a10.5,10.5,0,1,1-10.41,10.65A10.57,10.57,0,0,1,32.48,206.86Zm.07,1.16a9.34,9.34,0,1,0,9.34,9.32A9.33,9.33,0,0,0,32.55,208Z"/><path class="cls-2" d="M37.91,202.12a1.22,1.22,0,0,1-1.21-1.3,1.17,1.17,0,0,1,1.22-1.19,1.24,1.24,0,0,1,1.28,1.24A1.29,1.29,0,0,1,37.91,202.12Z"/><path class="cls-2" d="M34.21,202.13A1.31,1.31,0,0,1,33,200.81a1.23,1.23,0,0,1,1.34-1.17A1.2,1.2,0,0,1,35.49,201,1.25,1.25,0,0,1,34.21,202.13Z"/><path class="cls-2" d="M30.58,199.62a1.22,1.22,0,0,1,1.22,1.29,1.24,1.24,0,1,1-2.48,0A1.22,1.22,0,0,1,30.58,199.62Z"/><path class="cls-2" d="M40.18,217.31a7.63,7.63,0,1,1-7.68-7.59A7.67,7.67,0,0,1,40.18,217.31ZM26.11,218c.69-.21,1.37-.25,1.47-1.18.06-.56.59-.79,1.13-.8a1.12,1.12,0,0,1,1.16.78c.11.3.21.5.6.53,1.22.11,2.42.33,3.63.43a6.1,6.1,0,0,0,4.31-.81,1,1,0,0,0,.4-1.3A6.48,6.48,0,0,0,26.11,218Zm12.77.07a9.8,9.8,0,0,1-1.61.64,14.58,14.58,0,0,1-5.7-.11A8.75,8.75,0,0,0,27,219c-.56.22-.61.46-.38,1a6.54,6.54,0,0,0,7.64,3.69A6.26,6.26,0,0,0,38.88,218.09Z"/><path class="cls-2" d="M31.3,215a.83.83,0,0,1,.84.84.77.77,0,0,1-.88.86.75.75,0,0,1-.8-.85A.8.8,0,0,1,31.3,215Z"/><path class="cls-2" d="M29.92,213.53c.39,0,.59.2.57.52a.49.49,0,0,1-.56.48.46.46,0,0,1-.47-.48A.45.45,0,0,1,29.92,213.53Z"/><path class="cls-2" d="M22.25,96.4c0-2.25,0-4.5,0-6.75a7.52,7.52,0,0,1,5.24-7.24,1.09,1.09,0,0,0,.72-.71c.45-1.13.93-2.25,1.39-3.38.13-.32.25-.7.65-.65.71.08.65-.36.65-.82,0-2,0-4,0-6,0-.75.22-1,1-1,1.91,0,3.83,0,5.75,0,2.65,0,3.73,2.11,3.74,4.36a.41.41,0,0,1,0,.16c-.55.87-1.41.33-2.13.45a.65.65,0,0,1-.82-.59c-.28-1.32-.29-1.32-1.6-1.31-.69,0-1.39,0-2.08,0-.42,0-.52.14-.51.53,0,1.25,0,2.5,0,3.75,0,.18-.06.47.21.45.79,0,.84.58,1.06,1.06a6.73,6.73,0,0,1,.38.93,4.93,4.93,0,0,0,3,3.42,6.71,6.71,0,0,1,3.93,6.39c.08,4.67.07,9.34,0,14a7.48,7.48,0,0,1-7.64,7.5,40.88,40.88,0,0,1-6.73-.14,7.48,7.48,0,0,1-6.22-7.3C22.22,101.13,22.25,98.77,22.25,96.4Zm1.15.12c0,2.28,0,4.55,0,6.83a6.4,6.4,0,0,0,6.46,6.43c1.81,0,3.62,0,5.42,0a6.41,6.41,0,0,0,6.43-6.39q0-6.92,0-13.84a6.33,6.33,0,0,0-5.61-6.31,33,33,0,0,0-6.74,0,6.32,6.32,0,0,0-6,6.65C23.39,92.07,23.4,94.29,23.4,96.52ZM35.63,82c-.44-1.07-.84-2-1.23-3a.43.43,0,0,0-.47-.26q-1.45,0-2.91,0a.47.47,0,0,0-.51.31c-.33.85-.69,1.69-1,2.53-.11.25-.12.42.24.42ZM32,74.33h0c0,.86,0,1.72,0,2.58,0,.39-.1.75.53.75s.48-.38.49-.7c0-1.45,0-2.89,0-4.33,0-.65.26-.9.89-.89,1,0,1.95.06,2.91,0,1.29-.07,2.26.25,2.56,1.65.07.3.3.31.52.29s.23-.25.21-.45A2.39,2.39,0,0,0,37.88,71c-1.77,0-3.55,0-5.33,0-.41,0-.52.15-.51.53C32.05,72.45,32,73.39,32,74.33Z"/><path class="cls-2" d="M39.78,96.49c0,1.61,0,3.22,0,4.83a5.18,5.18,0,0,1-4.65,5.2,20.18,20.18,0,0,1-5.15,0,5.2,5.2,0,0,1-4.66-5.29c-.06-3.14-.07-6.28,0-9.42A5.29,5.29,0,0,1,31,86.37c1.19,0,2.39,0,3.58,0a5.23,5.23,0,0,1,5.21,5.1C39.83,93.15,39.78,94.82,39.78,96.49Zm-1.12,0h0c0-1.72.08-3.45,0-5.17A4,4,0,0,0,35,87.58a41.7,41.7,0,0,0-4.33-.06,4.18,4.18,0,0,0-4.19,4.18q-.06,4.76,0,9.51a4.23,4.23,0,0,0,4.32,4.23c1.12,0,2.23,0,3.34,0A4.24,4.24,0,0,0,38.66,101C38.68,99.45,38.66,98,38.66,96.45Z"/><circle class="cls-2" cx="32.81" cy="71.79" r="2.47"/><path class="cls-2" d="M22.26,46c.37.1,1.14.12,1.35.45.07.11,0-.46,0-.45,0-.24,0-.57,0-.81,0-1.64,0-3.28,0-4.92,0-.22,0-.44,0-.66.09-1.37.26-1.54,1.61-1.54,5.06,0,10.11,0,15.17,0,.64,0,.91.21,1,.8a8.12,8.12,0,0,1,.17,1.4c0,1.89,0,3.78,0,5.67a5.43,5.43,0,0,0,0,.57c.38.06,1.11-.38,1.11-.68,0-1.92,0-3.84,0-5.75a5.14,5.14,0,0,0-3.15-5,8,8,0,0,0-3.86-.39c-.79,0-.95-.23-.95-1,0-7.89,0-15.78,0-23.67a3.37,3.37,0,0,0-.6-2.12A1.9,1.9,0,0,0,30.88,8a3.76,3.76,0,0,0-.5,2.15q0,11.09,0,22.17c0,.74.33,1.68-.17,2.16s-1.38.13-2.09.13c-3.59,0-5.69,2.11-5.69,5.7C22.43,42.08,22.27,44.24,22.26,46ZM31.54,11.9c0-.83,0-1.66,0-2.48,0-.6.31-1.16.94-1.18s1,.57,1,1.17a9.83,9.83,0,0,1,0,1.33h0V11c0,1.42-.27,1.62-1.72,1.37C31.53,12.3,31.54,12.12,31.54,11.9Zm0,12.06c0-3.25,0-6.5,0-9.75,0-.55.1-.76.71-.73,1.34,0,1.34,0,1.34,1.36,0,6.34,0,12.67,0,19,0,1.24-.8.71-1.32.82s-.76-.2-.76-.79C31.55,30.57,31.54,27.26,31.54,24Zm-4.1,11.85c3.39,0,6.78,0,10.17,0a3.78,3.78,0,0,1,2.57,1H25A3.2,3.2,0,0,1,27.44,35.81Z"/><path class="cls-2" d="M40.18,36.86H25a3.2,3.2,0,0,1,2.44-1c3.39,0,6.78,0,10.17,0A3.78,3.78,0,0,1,40.18,36.86Z"/><polygon class="cls-2" points="26.3 45.97 26.75 42.83 27.2 45.97 26.3 45.97"/><polygon class="cls-2" points="29.44 45.97 29.89 42.83 30.34 45.97 29.44 45.97"/><polygon class="cls-2" points="32.59 45.97 33.04 42.83 33.48 45.97 32.59 45.97"/><polygon class="cls-2" points="35.73 45.97 36.18 42.83 36.63 45.97 35.73 45.97"/><polygon class="cls-2" points="38.87 45.97 39.32 43.27 39.77 45.97 38.87 45.97"/><polygon class="cls-2" points="42.46 45.97 42.02 47.32 23.16 47.32 22.26 45.97 42.46 45.97"/></g></g></svg>