<svg xmlns="http://www.w3.org/2000/svg" viewBox="0 0 263.53 229.24"><defs><style>.cls-1{fill:#15b4ce;}</style></defs><title>Recurso 2</title><g id="Capa_2" data-name="Capa 2"><g id="Capa_1-2" data-name="Capa 1"><path class="cls-1" d="M167.27,72.46A31.2,31.2,0,0,1,178.14,74a8.06,8.06,0,0,1,1.71.86,2.6,2.6,0,0,1,1.27,3.19c-1.45,7.28-2.92,14.57-4.3,21.86a2.19,2.19,0,0,1-1.85,2,28,28,0,0,1-14.15-.06,1.86,1.86,0,0,1-1.57-1.64c-1.33-7-2.73-14-4.12-21-.08-.44-.15-.88-.25-1.31A2.39,2.39,0,0,1,156,75a15.46,15.46,0,0,1,6.5-2.13A26.48,26.48,0,0,1,167.27,72.46Zm11.21,12.17c-2.78,2.87-4.27,3.86-6.95,4.6a1.72,1.72,0,0,0-1.36.9,1.26,1.26,0,0,1-1.22.59c-.52,0-1,0-1.58,0a1.5,1.5,0,0,1-1.57-.86c-.17-.38-.49-.4-.8-.47A12.8,12.8,0,0,1,158.88,86c-.47-.45-1-.88-1.44-1.31a3.22,3.22,0,0,0,0,.5c.8,4.05,1.62,8.09,2.39,12.14a.93.93,0,0,0,.83.83,30,30,0,0,0,14.73-.06.86.86,0,0,0,.71-.79c.59-3.07,1.23-6.14,1.8-9.22A15.56,15.56,0,0,0,178.48,84.63Zm-22-5a11.61,11.61,0,0,0,6.91,8c1,.43,2,1.11,3.24,0,.58-.53,1.61-.14,2.43-.18a1.16,1.16,0,0,1,1,.47c.27.38.56.33.94.23a11.54,11.54,0,0,0,6.61-4.48,10.15,10.15,0,0,0,1.86-4.1A33.72,33.72,0,0,1,156.46,79.59Zm-.56-2.69a1.67,1.67,0,0,0,2.15,1.44c6.67-3,13.34-3.51,20,.08.5.27,1.39-.12,1.86-.79a1,1,0,0,0-.25-1.47,6.63,6.63,0,0,0-2.57-1.32,33.81,33.81,0,0,0-15.9-.59A12.6,12.6,0,0,0,157,75.66C156.5,76,156,76.32,155.9,76.9ZM177,79.28c-5.63-3.33-13.56-2.51-18,0A34.83,34.83,0,0,0,177,79.28Zm-9,22.39c.31,0,.61,0,.92,0a23.62,23.62,0,0,0,6.13-1c.69-.21.64-.79.58-1.2s-.54-.11-.79,0a33.67,33.67,0,0,1-5.1.72,30,30,0,0,1-8.91-.75c-.18,0-.54-.26-.49.1s-.06,1,.68,1.22A25.8,25.8,0,0,0,168,101.67Zm.06-12.1h0c.25,0,.5,0,.74,0s.61-.17.62-.51-.26-.44-.58-.43h-1.49c-.29,0-.57.06-.57.44s.22.48.54.48Z"/><path class="cls-1" d="M91.15,195.56c4,0,8.06-.08,12.09,0a7,7,0,0,1,6.51,6.34,7.13,7.13,0,0,1-5.67,7.7,25.05,25.05,0,0,1-4.24.14c-1.47,0-3,0-4.42,0-.58,0-.74.14-.73.74,0,5.53,0,11.06,0,16.59,0,.81-.22,1-1,1-1.86-.06-3.72,0-5.58,0-.62,0-.8-.16-.79-.79,0-5.53,0-11.06,0-16.59,0-.74-.17-1-1-1-2.33.06-4.66,0-7,0a7.12,7.12,0,0,1-1.27-14.12,9.2,9.2,0,0,1,1.74-.12c1.89,0,3.78,0,5.67,0h5.59Zm-.07,5.81c5.56,0,11.12,0,16.68,0,.64,0,.75-.13.52-.75a6.05,6.05,0,0,0-5.87-4q-11.34,0-22.68,0a6.06,6.06,0,0,0-5.84,3.91c-.27.71-.11.82.59.82C80,201.36,85.55,201.37,91.08,201.37Zm-2.59,18.19c0,2.22,0,4.44,0,6.67,0,.5.09.74.68.72,1.27,0,2.55,0,3.83,0,.42,0,.58-.09.58-.54q0-6.84,0-13.66c0-.42-.15-.51-.54-.5-1.27,0-2.55,0-3.83,0-.61,0-.72.2-.72.76C88.51,215.18,88.49,217.37,88.49,219.56Zm2.58-17.06h0c-2,0-4,0-6,0-.53,0-.66.14-.65.65a6,6,0,0,0,.65,3,4.22,4.22,0,0,0,4,2.51c1.47-.06,2.94,0,4.41,0a2.16,2.16,0,0,0,1.11-.26,5.32,5.32,0,0,0,2.93-5.27c0-.47-.11-.6-.59-.59C95,202.52,93,202.5,91.07,202.5Zm5.46,6c.14.08.17.1.19.1,1.94,0,3.89,0,5.83,0a6.5,6.5,0,0,0,2.44-.47,6,6,0,0,0,3.61-5.09c0-.24.14-.57-.35-.57-3,0-6.06,0-9.09,0-.33,0-.44.11-.43.43A7,7,0,0,1,96.53,208.51Zm-10.94.09A7,7,0,0,1,83.31,203c0-.56-.28-.54-.67-.54-2.81,0-5.61,0-8.41,0-.63,0-.73.2-.69.76A6,6,0,0,0,79,208.59C81.14,208.66,83.28,208.6,85.59,208.6Zm5.46,2.5c.67,0,1.34,0,2,0s.51-.34.51-.69.1-.67-.46-.65c-1.38,0-2.77,0-4.15,0-.54,0-.48.31-.47.65s-.1.73.5.7S90.36,211.1,91.05,211.1Z"/><path class="cls-1" d="M255.13,33.47s0,0,0,.05c-.31,1.64-1.35,2.07-2.92,2-1.8-.05-3.61.13-5.41.25a.9.9,0,0,1-1.07-.77c-.24-.83-.57-1.64-.94-2.67-.43,1.08-.8,2-1.12,2.87a.8.8,0,0,1-.87.59c-2.25,0-4.5-.14-6.75-.24a1.08,1.08,0,0,1-1.17-.93,10.5,10.5,0,0,0-.43-1.26,3.25,3.25,0,0,0-.64,1.29.79.79,0,0,1-.94.6c-1.92-.29-3.84-.56-5.75-.89-.87-.15-1-.56-.4-1.26a15.93,15.93,0,0,0,3.54-6.89c.33-1.6.42-3.24.62-4.86.16-1.27.33-2.53.5-3.8a2.55,2.55,0,0,1,2.19-2.26,6.7,6.7,0,0,1,1-.05h20.92c2,0,2.86.8,3.13,2.78.32,2.41.6,4.83.89,7.25A15,15,0,0,0,263,32.9c.24.32.68.58.5,1.07s-.68.43-1.07.48c-1.79.24-3.58.41-5.36.69-1,.16-1.47-.15-1.64-1.09A.75.75,0,0,0,255.13,33.47ZM257,34c1.47-.19,2.79-.39,4.12-.51.66-.07.67-.2.3-.71a15.59,15.59,0,0,1-3.15-7.58c-.07-.61-.26-.75-.86-.74q-12,0-24.08,0a3.41,3.41,0,0,0-1.62.12c-.27.17-.18.92-.26,1.41a2.1,2.1,0,0,1-.06.24,16.92,16.92,0,0,1-3.08,6.66c-.26.36-.38.53.2.61,1.26.17,2.52.38,3.78.58a.48.48,0,0,0,.61-.39c.21-.62.46-1.24.73-1.85.15-.36.17-.89.75-.85s.54.48.67.85c.25.7.53,1.4.74,2.11.1.36.25.51.61.52,1.83.05,3.67.11,5.5.21a.82.82,0,0,0,.94-.67c.38-1.1.84-2.17,1.26-3.25.12-.31.23-.65.66-.65s.52.34.63.66c.37,1.08.76,2.15,1.11,3.23.14.43.31.68.85.64,1.91-.14,3.83-.24,5.74-.32a.58.58,0,0,0,.58-.46c.29-.78.6-1.55.9-2.32.11-.27.28-.5.6-.5s.48.23.58.51c.22.63.44,1.25.65,1.89C256.54,33.82,256.69,34.11,257,34ZM245,16.44c-3.51,0-7,0-10.51,0-1.48,0-1.92.39-2.09,1.86-.14,1.1-.25,2.21-.42,3.31-.27,1.72-.29,1.69,1.46,1.71.56,0,.71-.2.78-.7.16-1.12.4-2.23.56-3.36.09-.69.41-.9,1.1-.89,3.7,0,7.4,0,11.09,0,2.39,0,4.78,0,7.17,0,.62,0,.9.2,1,.83.1.83.28,1.64.42,2.46.29,1.68.29,1.66,2,1.65.45,0,.57-.12.51-.56-.21-1.51-.38-3-.6-4.53s-.6-1.79-2.14-1.79Zm-.1,6.86c3,0,6,0,9.08,0,.53,0,.69-.11.58-.64a19.41,19.41,0,0,1-.41-2.38c-.06-.69-.37-.81-1-.81-5.22,0-10.44,0-15.66,0-1.54,0-1.54,0-1.82,1.56-.1.54-.16,1.1-.31,1.63s.05.64.56.63C238.87,23.29,241.87,23.3,244.87,23.3Z"/><path class="cls-1" d="M245,197.46H261.8c1.22,0,1.24,0,1.25,1.27,0,1.64.11,3.27-.92,4.72a5,5,0,0,1-4,2.34c-2.89.08-5.78.07-8.67.06a1.43,1.43,0,0,0-1.24.62,5,5,0,0,0-1.12,4c.36,4,.54,8.09.74,12.14a3.37,3.37,0,1,1-6.73-.14c.26-4.52.51-9,.78-13.55.07-1.25-.95-1.88-1.5-2.77-.3-.51-.92-.24-1.39-.25-2.14,0-4.28,0-6.42,0a5.41,5.41,0,0,1-5.77-5.71v-2a.59.59,0,0,1,.66-.67l.83,0Zm-16.76,4.29a4.23,4.23,0,0,0,4.15,3H240c.38,0,.76-.06,1,.31a7.05,7.05,0,0,1,1.92,5.64c-.49,3.93-.54,7.92-.76,11.89a2.31,2.31,0,0,0,1.63,2.35,2.27,2.27,0,0,0,2.51-1,3.64,3.64,0,0,0,.27-2.34c-.21-3.58-.28-7.17-.68-10.73a6.48,6.48,0,0,1,1.59-5.39,1.7,1.7,0,0,1,1.45-.7q4.17,0,8.34,0a4.31,4.31,0,0,0,3.93-2.06c.16-.25.46-.52.28-.81s-.52-.1-.78-.1H228.2Zm16.65-1.16H261.1c.26,0,.69.16.74-.15a3.68,3.68,0,0,0,0-1.65c-.1-.37-.63-.16-1-.16H229.69c-.45,0-.89,0-1.33,0s-.47.06-.42.41a3.14,3.14,0,0,1,0,.75c-.11.67.12.84.83.84C234.12,200.57,239.49,200.59,244.85,200.59Z"/><path class="cls-1" d="M80.52,151.64c0-3.76,0-7.51,0-11.26A4.08,4.08,0,0,1,83,136.27a.65.65,0,0,0,.42-.7,15.34,15.34,0,0,1,.05-1.66,1.91,1.91,0,0,1,1.91-1.73c1.39,0,2.78,0,4.17,0a1.87,1.87,0,0,1,2,2A3,3,0,0,0,93,137a53.61,53.61,0,0,1,7.43,7.85,6.24,6.24,0,0,1,1.19,3.92c.14,4.91.11,9.83,0,14.75a3.89,3.89,0,0,1-3.73,3.69q-6.78.06-13.58,0a3.93,3.93,0,0,1-3.76-3.92c0-3.89,0-7.78,0-11.67Zm10.64,4.07c-2.94,0-5.88,0-8.83,0-.54,0-.7.14-.69.69,0,2.22,0,4.44,0,6.66a2.84,2.84,0,0,0,3,3.05q6.42.06,12.83,0a2.9,2.9,0,0,0,3-3.14c0-2.19,0-4.38,0-6.58,0-.55-.14-.69-.69-.69C96.94,155.72,94.05,155.7,91.16,155.71Zm-.23-8.17h0c2.89,0,5.78,0,8.67,0,.52,0,.71-.09.5-.65a4.34,4.34,0,0,0-.68-1.42A74.34,74.34,0,0,0,92,137.63a1.91,1.91,0,0,0-1.26-.56c-2,0-4.06,0-6.09,0a2.88,2.88,0,0,0-3,3.09c0,2.22,0,4.44,0,6.67,0,.56.19.69.72.69C85.21,147.52,88.07,147.54,90.93,147.54Zm.14,7h8.66c.39,0,.79.11.78-.53,0-1.55,0-3.11,0-4.66,0-.44-.1-.7-.65-.69q-8.79,0-17.57,0c-.56,0-.63.22-.63.69,0,1.5,0,3,0,4.49,0,.62.22.72.77.72C85.3,154.54,88.19,154.55,91.07,154.55ZM87.58,136h1.5c1.58,0,1.57,0,1.45-1.6a1,1,0,0,0-1.12-1.06c-1.19,0-2.38,0-3.57,0-1,0-1.21.27-1.24,1.25,0,.28,0,.55,0,.83,0,.44.15.58.58.57C86,135.93,86.78,136,87.58,136Z"/><path class="cls-1" d="M97.49,68.83c1.33,0,2.55,0,3.78,0,.65,0,1,.22,1,.91,0,1,0,2,0,3,0,.67-.32.88-.92.87-1.28,0-2.55,0-3.83,0-.55,0-.71.11-.78.7a5.84,5.84,0,0,0,.9,3.3c.5,1,.33,1.23-.76,1.24-.61,0-1.22,0-1.83,0-.21,0-.57-.19-.59.22s-.16.7.16.94c2.83,2,3.68,5.09,4.33,8.24s1.21,6.08,1.79,9.13-1.38,6.56-4.38,8.11a7,7,0,0,1-3.26.9c-2.25,0-4.51.27-6.73-.2A8.23,8.23,0,0,1,80,98.31a24.08,24.08,0,0,1,.73-4.25,75.32,75.32,0,0,1,1.87-8.68A9.8,9.8,0,0,1,86,80.11a.82.82,0,0,0,.31-.79c0-1.09,0-2.17,0-3.25A6.94,6.94,0,0,1,92.77,69C94.38,68.79,96,68.87,97.49,68.83Zm-7.13,36.45c1,0,2.1,0,3.16-.08,3.7-.47,6.66-4.26,6-7.75-.46-2.53-1-5-1.45-7.59-.1-.53-.26-.54-.7-.4a11.28,11.28,0,0,1-7.19-.17,11.86,11.86,0,0,0-6.73-.23.91.91,0,0,0-.82.85c-.26,1.55-.62,3.09-.89,4.65a19.52,19.52,0,0,0-.65,4A7.19,7.19,0,0,0,86.46,105,17.6,17.6,0,0,0,90.36,105.28ZM94,88.83a12.21,12.21,0,0,0,3.12-.47c.51-.13.64-.35.49-.88a17.67,17.67,0,0,0-1.92-4.75,6.52,6.52,0,0,0-10.47-.26,16.27,16.27,0,0,0-2,4.7c-.2.67-.08.82.6.67a12.78,12.78,0,0,1,7,.44A9.58,9.58,0,0,0,94,88.83Zm3.41-16.37c.66,0,1.1,0,1.55,0s.55-.13.49-.47c-.13-.67.3-1.4-.27-2,0,0-.11,0-.17,0a42.57,42.57,0,0,0-6.39.18,5.68,5.68,0,0,0-5,4.19c-.19.71-.16,1,.69,1a17.53,17.53,0,0,1,3.24,0,2.9,2.9,0,0,0,3.16-1.51C95.4,72.73,96.29,72.08,97.42,72.46Zm-4.17,6.81c0-.79,0-1.51,0-2.23,0-.48-.14-.61-.61-.61-1.5,0-3,0-4.5,0-.58,0-.74.22-.69.73a5.8,5.8,0,0,1,0,.59c0,.47-.16,1.08.08,1.37s.84-.11,1.29-.12a2.13,2.13,0,0,0,.25,0A11,11,0,0,1,93.25,79.27Zm2.37-4.6c-.86.84-1.43,1.52-1.22,2.55,0,.2-.06.49.3.45s1,.13,1.52-.11a.56.56,0,0,0-.07-.29A3.54,3.54,0,0,1,95.62,74.67Zm5.49-3.46c-.24-.37.32-1.12-.3-1.15-.42,0-.22.75-.19,1.14s-.36,1.14.27,1.17C101.28,72.39,100.94,71.62,101.11,71.21Z"/><path class="cls-1" d="M170.15,14.66c0,4,0,8,0,12,0,.61.16.79.78.79a2.11,2.11,0,0,1,2.26,2.45.66.66,0,0,0,.2.58c2.39,2.25,2.83,5.11,2.57,8.19a16.31,16.31,0,0,1-2.11,7.37,10.36,10.36,0,0,1-7.32,5c-.88.15-1.16-.17-.86-1a4.4,4.4,0,0,0-.91-4.28c-.72-1-1.6-1.91-2.41-2.86a8.87,8.87,0,0,1,.11-12.16,1.18,1.18,0,0,0,.35-1A2.1,2.1,0,0,1,165,27.47c.73,0,.84-.25.84-.9,0-7.9,0-15.79,0-23.68a3.39,3.39,0,0,1,.51-1.9,1.93,1.93,0,0,1,3.48.22,3.44,3.44,0,0,1,.35,1.61C170.15,6.77,170.15,10.71,170.15,14.66ZM167,49.84c.41-.11.7-.21,1-.28a1.17,1.17,0,0,0,1-1.4c-.09-1.47,0-2.94,0-4.42,0-1.27,0-2.55,0-3.83,0-.38.09-.7.51-.72s.61.29.62.71v.58q0,3.66,0,7.34c0,.16-.1.35.06.46s.34-.09.48-.2a9.53,9.53,0,0,0,2.68-3.36,17.77,17.77,0,0,0,1.53-8.51,7.06,7.06,0,0,0-1.7-4.33c-.33-.41-.63-.64-1.15-.24a2.14,2.14,0,0,1-1.37.26c-1.75,0-3.5,0-5.25,0a2.29,2.29,0,0,1-1.37-.26c-.44-.32-.68-.14-1,.19a8.4,8.4,0,0,0-1.87,5.32,6.45,6.45,0,0,0,2.13,5.06v-3c0-.43,0-.92.55-.94s.6.47.61.9c0,1.25,0,2.5,0,3.75a1.51,1.51,0,0,0,.42,1.11C166.26,45.69,167.29,47.46,167,49.84ZM169,17h0c0-3.27,0-6.55,0-9.82,0-.67-.19-.83-.78-.73a1,1,0,0,1-.41,0c-.75-.15-.89.17-.88.88,0,6.28,0,12.55,0,18.83,0,1.35,0,1.31,1.36,1.35.63,0,.69-.22.69-.76C169,23.45,169,20.2,169,17Zm-1,11.64c-1,0-1.94,0-2.91,0-.66,0-1.11.32-1.1,1.06a1,1,0,0,0,1.1,1.1c2,0,3.93,0,5.9,0a1.06,1.06,0,0,0,1.13-1.15,1.08,1.08,0,0,0-1.21-1Q169.42,28.61,168,28.59Zm1-24.86h0a11.11,11.11,0,0,0-.13-1.64,1,1,0,0,0-.93-.92c-.51,0-.73.43-.88.86A5.92,5.92,0,0,0,167,4c0,1.28,0,1.23,1.25,1.29.68,0,.87-.19.78-.81A6.09,6.09,0,0,1,169,3.73Z"/><path class="cls-1" d="M93.41,23.26c0,4.42,0,8.84,0,13.26,0,.72.2.86.88.85,1.91,0,3.83,0,5.75,0,2.71,0,4.25,1.61,4.25,4.34,0,2.44,0,2.44-2.41,2.44H79.1c-1.18,0-1.23-.05-1.22-1.22a15.34,15.34,0,0,1,.05-2.25,3.86,3.86,0,0,1,3.9-3.3c2,0,4,0,5.92,0,.78,0,1-.15,1-1,0-8.64,0-17.28,0-25.93a4.57,4.57,0,0,1,.2-1.72A2.36,2.36,0,0,1,91.23,7a2.53,2.53,0,0,1,2.09,2.1,6.41,6.41,0,0,1,.08,1.24Q93.42,16.81,93.41,23.26ZM91.07,43c3.78,0,7.56,0,11.34,0,.59,0,.82-.15.72-.74a2.77,2.77,0,0,1,0-.5c0-1.07,0-1.08-1.09-1.08H80.61c-1.6,0-1.56,0-1.6,1.58,0,.67.23.74.81.74C83.57,43,87.32,43,91.07,43Zm1.18-17.26V15.37c0-1.44,0-1.39-1.43-1.45-.78,0-.94.21-.94.95,0,7,0,13.89,0,20.84,0,1.63,0,1.6,1.62,1.65.6,0,.74-.15.74-.73C92.23,33,92.25,29.35,92.25,25.71Zm10.2,13.78a3.33,3.33,0,0,0-2.63-1H83.74c-.72,0-1.44,0-2.16,0a2.57,2.57,0,0,0-1.83,1ZM92.25,11a6.32,6.32,0,0,0-.12-1.81c-.18-.52-.48-1-1.08-1s-.85.46-1,1a1.83,1.83,0,0,0-.13.56c0,.89,0,1.77,0,2.66,0,.31.08.41.41.44C92.25,13,92.25,13,92.25,11Z"/><path class="cls-1" d="M261.88,151.91c0,.63-.4.64-.77.66a10.78,10.78,0,0,0-4.24,1.09,8.55,8.55,0,0,0-4.67,7c-.07.53-.1,1-.12,1.58s0,.81-.58.81-.59-.45-.59-.83a11.91,11.91,0,0,0-.47-3.36c-1.13-3.73-4.06-5.95-8.3-6.3h-.25c-.38,0-.74,0-.75-.56s.36-.57.72-.59a10.07,10.07,0,0,0,3.48-.73c3.41-1.38,5.09-4,5.5-7.58,0-.44,0-.89.08-1.33s0-.91.62-.88.52.47.53.87a13.12,13.12,0,0,0,.6,3.68,8.72,8.72,0,0,0,7.89,5.93c.27,0,.55,0,.83.07A.52.52,0,0,1,261.88,151.91Zm-16.76.12a9.78,9.78,0,0,1,6.39,6.33A9.83,9.83,0,0,1,258,152a9.64,9.64,0,0,1-6.44-6.25C249.62,149.57,249.28,149.9,245.12,152Z"/><path class="cls-1" d="M234.06,152.61c.57,0,.63.37.65.8a5.52,5.52,0,0,0,1.06,3.35,4.93,4.93,0,0,0,3.44,1.81c.45.06,1.06-.06,1.07.61s-.63.54-1.06.61a4.86,4.86,0,0,0-4.51,4.91c0,.17,0,.34,0,.5,0,.31-.14.53-.49.56a.53.53,0,0,1-.63-.52c-.06-.49,0-1-.14-1.48a4.81,4.81,0,0,0-4.58-4c-.42-.05-.89,0-.87-.62s.46-.52.85-.56a4.81,4.81,0,0,0,4.7-4.94C233.55,153.21,233.49,152.73,234.06,152.61Zm3,6.54a6,6,0,0,1-2.94-2.89,6.09,6.09,0,0,1-2.91,3,5.78,5.78,0,0,1,2.93,2.83,10.64,10.64,0,0,1,1.2-1.67A10.83,10.83,0,0,1,237,159.15Z"/><path class="cls-1" d="M245.15,140.23a.63.63,0,0,1-.61.58,9.47,9.47,0,0,0-1.07.13,4.79,4.79,0,0,0-3.91,4.64c0,.22,0,.44,0,.67a.56.56,0,0,1-.6.56c-.33,0-.49-.25-.53-.54a15.55,15.55,0,0,0-.19-1.64,4.72,4.72,0,0,0-4.3-3.77l-.49,0c-.38,0-.66-.22-.63-.63s.27-.49.63-.52a7.24,7.24,0,0,0,1.46-.28,4.66,4.66,0,0,0,3.48-4.54,3.84,3.84,0,0,1,0-.59c.05-.31.16-.6.56-.59s.56.24.59.64a9.86,9.86,0,0,0,.25,1.81c.63,2.27,2.29,3.28,4.52,3.54C244.69,139.7,245.09,139.71,245.15,140.23ZM239,137.31a7.56,7.56,0,0,1-1.2,1.73,17,17,0,0,1-1.66,1.23A6.29,6.29,0,0,1,239,143.1a6.18,6.18,0,0,1,2.94-2.9A5.63,5.63,0,0,1,239,137.31Z"/><path class="cls-1" d="M239.69,88.8c-2.69,0-5.39,0-8.08,0-.73,0-1.08-.22-1.07-1q0-3.24,0-6.5c0-.64.26-.88.9-.86,1.31,0,2.61,0,3.92,0,.44,0,.69-.08.85-.55a2.55,2.55,0,0,1,2-1.72c.89-.16.45-.8.51-1.24s-.42-.38-.71-.39c-1.64,0-3.28,0-4.91,0a2.56,2.56,0,0,1-2.28-3.74,2.74,2.74,0,0,1,2.48-1.43c5,0,9.95,0,14.92,0a2.79,2.79,0,0,1,2.78,2,2.59,2.59,0,0,1-2.5,3.2c-1.66.06-3.33,0-5,0-.32,0-.75-.09-.63.45.08.39-.42,1,.49,1.14a2.55,2.55,0,0,1,2.22,1.75.75.75,0,0,0,.85.56,43.68,43.68,0,0,1,5.49.1c4.12.51,6.3,3.27,7.11,7.29a40.66,40.66,0,0,1,.28,6.89c0,.59-.26.84-.87.83-2.16,0-4.33,0-6.5,0-.66,0-.89-.27-.88-.89,0-.86,0-1.73,0-2.59A2.87,2.87,0,0,0,248,88.85c-2.77-.06-5.55,0-8.33,0Zm15.43,2.37c.83,0,1.67,0,2.5,0,.45,0,.57-.14.56-.57a16.48,16.48,0,0,0-.34-3,7.06,7.06,0,0,0-7.43-6c-1.58,0-3.16,0-4.74,0-.63,0-1-.14-1-.86a1.58,1.58,0,0,0-1.71-1.48c-1.36,0-2.73,0-4.09,0a1.58,1.58,0,0,0-1.64,1.46c0,.77-.46.91-1.09.9-1.22,0-2.45,0-3.67,0-.56,0-.78.12-.76.73,0,1.45.07,2.89,0,4.33,0,.82.16,1,1,1,4.95-.05,9.89,0,14.83,0,1.79,0,3.57.43,4.23,2.2.49,1.33,1.2,1.43,2.29,1.32A9.73,9.73,0,0,1,255.12,91.17ZM242.7,72.5a8.62,8.62,0,0,1,.16,2.46c0,.28,0,.48.38.47,1.72,0,3.44,0,5.16,0a1.44,1.44,0,1,0,0-2.87C246.5,72.47,244.61,72.5,242.7,72.5Zm-6.79,0c-.83,0-1.67,0-2.5,0a1.48,1.48,0,1,0,0,2.92c1.61,0,3.22,0,4.83,0,.47,0,.55-.19.55-.6a7.35,7.35,0,0,1,.09-2c.13-.44-.2-.35-.43-.35C237.58,72.49,236.74,72.5,235.91,72.5Zm19.32,22h1.58c1.4,0,1.38,0,1.38-1.43,0-.53-.13-.72-.7-.7-1.3,0-2.61,0-3.91,0s-1.35,0-1.37,1.42c0,.56.16.74.7.72C253.68,94.43,254.46,94.45,255.23,94.45Zm-13.52-19h0c0-.64,0-1.28,0-1.91s-.26-1-.89-1.07-.91.46-.92,1c0,1.36,0,2.72,0,4.08,0,.18,0,.37.23.46,1,.33,1.59-.08,1.59-1.11C241.7,76.5,241.71,76,241.71,75.5Z"/><path class="cls-1" d="M255.49,103.89A2.69,2.69,0,0,1,253,100a20.27,20.27,0,0,1,1.93-3.18c.4-.56.8-.54,1.18,0,.7,1,1.32,2,1.92,3.1A2.73,2.73,0,0,1,255.49,103.89Zm0-5.84a14.18,14.18,0,0,0-1.58,2.67,1.35,1.35,0,0,0,.55,1.67,1.65,1.65,0,0,0,2.07,0,1.37,1.37,0,0,0,.55-1.67A17,17,0,0,0,255.5,98.05Z"/><path class="cls-1" d="M168,167.88h-7.75c-2.07,0-3.19-1-3.34-3-.33-4.46-.61-8.92-.91-13.39q-.47-6.94-1-13.88c0-.25,0-.5,0-.75a2.59,2.59,0,0,1,2.61-2.83c1.41,0,2.83,0,4.25,0a.8.8,0,0,0,.92-.58,2.82,2.82,0,0,1,2.8-1.85c1.81,0,3.61,0,5.42,0a2.82,2.82,0,0,1,2.8,1.85.82.82,0,0,0,.93.58c1.17,0,2.34,0,3.5,0A2.8,2.8,0,0,1,181,137.1c-.59,7.67-1.05,15.35-1.57,23-.1,1.63-.21,3.27-.32,4.9a3,3,0,0,1-3.17,2.85Zm.12-26.48h0c-3.64,0-7.28,0-10.92,0-.59,0-.75.15-.7.74.19,2.36.34,4.71.5,7.07.31,4.57.63,9.14.92,13.71,0,.48.14.66.67.66q9.47,0,18.92,0c.53,0,.63-.17.66-.66q.66-10.35,1.39-20.7c0-.68-.11-.84-.77-.83C175.2,141.42,171.64,141.4,168.08,141.4Zm-.12-1.12h0c3.69,0,7.39,0,11.08,0,.47,0,.63-.12.64-.59,0-.8.08-1.61.15-2.41.14-1.61-.36-2.17-2-2.17H159.08c-.5,0-1,0-1.49,0a1.44,1.44,0,0,0-1.47,1.64c0,.86.16,1.72.16,2.57,0,.7.17.95.93.94C160.79,140.25,164.38,140.28,168,140.28Zm.09,24.44h0c-3.11,0-6.22,0-9.33,0-.73,0-.79.27-.58.84a1.8,1.8,0,0,0,1.9,1.19c2.39,0,4.78,0,7.17,0,2.89,0,5.78,0,8.67,0a1.82,1.82,0,0,0,2-1.18c.22-.57.19-.85-.56-.84C174.22,164.74,171.14,164.72,168.05,164.72ZM163.71,134h8.6c.4,0,.42-.18.23-.46a1.89,1.89,0,0,0-1.71-.84c-1.73,0-3.45,0-5.17,0A2,2,0,0,0,163.71,134Z"/><path class="cls-1" d="M168.08,147.16c1.78-.64,2.59.28,3,1.8.1.34.2.65.72.62.34,0,.4.33.22.62-.36.6-.71,1.19-1.08,1.77a.54.54,0,0,1-.47.32,10.46,10.46,0,0,1-2.48-.61c-.34-.13-.28-.43,0-.66s.1-.48-.07-.64c-.31-.31-.35.12-.45.23-1.19,1.4-1.19,1.4-2.66.29-1.17-.88-1.17-.88-.26-2a2.56,2.56,0,0,0,.2-.26C165.56,147.43,166.51,146.52,168.08,147.16Zm.8.69h-.5c-.64-.06-1,0-.51.76a13.28,13.28,0,0,1,1.21,2.18.87.87,0,0,0,1.24.54.9.9,0,0,0,.38-1.32,6,6,0,0,1-.55-1.21C169.9,148.11,169.58,147.58,168.88,147.85Zm-2.36-.06c-.55.66-1,1.23-1.51,1.79-.15.18-.19.32,0,.48s.63.45.93.7.28.09.43,0a1.66,1.66,0,0,0,.45-2.39C166.76,148.18,166.67,148,166.52,147.79Z"/><path class="cls-1" d="M165.11,158.63a2,2,0,0,1-2.49-1.42.83.83,0,0,0-.19-.27c-1.21-1.23-1.48-2.49-.17-3.84.15-.15.33-.37.19-.6-.46-.74,0-.77.57-.8,2.38-.11,2.38-.11,3.1,2.17.15.47.2.87-.51.71-.38-.08-.42.24-.46.45s.24.22.41.24l.42,0c1.45.11,1.47.11,1.44,1.55,0,2,.36,1.75-1.77,1.76Zm-1.85-1.92c.77-1,1.1-2.16,1.77-3.17.2-.3-.07-.83-.35-1a.87.87,0,0,0-1.14.1,7.84,7.84,0,0,0-1.35,2.26c-.17.57.6,1.05.88,1.61A1.52,1.52,0,0,0,163.26,156.71Zm2.08,1.15c.36-.11,1,.27,1.21-.2a1.63,1.63,0,0,0-.09-1.51,3.67,3.67,0,0,0-1.92,0c-.19.5-.81.94-.59,1.47s.81.13,1.23.19Z"/><path class="cls-1" d="M171.67,158.63c-.59.06-1.26-.24-1.66.53-.12.22-.45,0-.6-.23-.37-.55-.73-1.1-1.11-1.65a.58.58,0,0,1,.06-.82c.58-.6.85-1.51,1.71-1.84.17-.06.28.22.35.41.13.34.43.24.62.15s.05-.32,0-.49,0-.09-.07-.14c-.78-1.52-.78-1.52.77-2.37s1.2-.89,2.13.65a3.35,3.35,0,0,1,.07,4,3.07,3.07,0,0,0-.2.45C173.11,158.63,173.11,158.63,171.67,158.63Zm-.66-.78c.48,0,.84,0,1.2,0a.45.45,0,0,0,.51-.31c.18-.43.38-.85.57-1.28s0-.43-.31-.41c-1,.07-2.1.11-3.14.2-.5.05-.75.82-.53,1.27C169.74,158.19,170.51,157.74,171,157.85Zm1.84-2.8c1.14,0,1.14,0,.64-1a9.5,9.5,0,0,0-.47-1c-.11-.17-.1-.62-.46-.41s-1.09.31-1.24.85S172.26,155.07,172.85,155.05Z"/><path class="cls-1" d="M185.19,211.76c0,1.64,0,3.28,0,4.92,0,2.28-.76,3.41-2.9,4.32a12.54,12.54,0,0,1-7,.72,45.71,45.71,0,0,0-14.25,0,12.85,12.85,0,0,1-7.35-.72,4.22,4.22,0,0,1-2.9-4.36c.13-3.27.11-6.56,0-9.83a4,4,0,0,1,2.53-4,12.43,12.43,0,0,1,7.07-1c2.29.26,4.58.57,6.87.71a43.6,43.6,0,0,0,6.55-.52c2.38-.23,4.75-.6,7.11.09a8.68,8.68,0,0,1,2.57,1.13,3.52,3.52,0,0,1,1.73,3.19c0,1.78,0,3.56,0,5.34Zm-33.25-3.41c0,3.06,0,6,0,8.88a2.36,2.36,0,0,0,1,2,6.63,6.63,0,0,0,1.62.86,12.78,12.78,0,0,0,6.49.41,44.78,44.78,0,0,1,14,0,11.2,11.2,0,0,0,7.08-.77c.93-.47,1.85-1,1.86-2.24,0-2.86,0-5.72,0-8.59,0-.56-.22-.43-.53-.22a7.76,7.76,0,0,1-1.69.88,15.34,15.34,0,0,1-7.4.45,37.9,37.9,0,0,0-7.05-.57c-2.41.17-4.8.47-7.21.72A11.26,11.26,0,0,1,151.94,208.35Zm25.41.83a9.41,9.41,0,0,0,5.73-1.55,1.82,1.82,0,0,0,.07-3.19,8.81,8.81,0,0,0-6.23-1.57c-2.41.17-4.81.47-7.21.72-3,.31-6-.25-9-.59-2.55-.29-5-.27-7.34,1.08-1.82,1.07-1.84,2.74,0,3.83a9,9,0,0,0,4,1.2,38,38,0,0,0,6.39-.43,31.43,31.43,0,0,1,6-.3C172.25,208.68,174.91,208.93,177.35,209.18Z"/><path class="cls-1" d="M166.79,215.83a1.27,1.27,0,0,1,1.2,1.32,1.22,1.22,0,0,1-1.25,1.18,1.25,1.25,0,0,1-1.25-1.27A1.28,1.28,0,0,1,166.79,215.83Z"/><path class="cls-1" d="M156,211.93a1.27,1.27,0,0,1,1.22,1.23,1.28,1.28,0,0,1-1.27,1.27,1.24,1.24,0,0,1-1.24-1.28A1.22,1.22,0,0,1,156,211.93Z"/><path class="cls-1" d="M176.4,211.23a1.18,1.18,0,0,1,1.26,1.24,1.27,1.27,0,0,1-1.17,1.27,1.34,1.34,0,0,1-1.33-1.31A1.25,1.25,0,0,1,176.4,211.23Z"/><path class="cls-1" d="M175.17,217.14a.88.88,0,0,1-1,.88.84.84,0,0,1-.89-1,.85.85,0,0,1,1-.9A.9.9,0,0,1,175.17,217.14Z"/><path class="cls-1" d="M163.17,213.16a.91.91,0,0,1-1-.95.87.87,0,0,1,1-.92.86.86,0,0,1,.93.94A.85.85,0,0,1,163.17,213.16Z"/><path class="cls-1" d="M181,216.42a.7.7,0,0,1-.7.67.66.66,0,0,1-.73-.72.63.63,0,0,1,.68-.67C180.67,215.69,180.9,216,181,216.42Z"/><path class="cls-1" d="M170.5,213.27a.61.61,0,0,1-.65.62.71.71,0,0,1-.07-1.42C170.2,212.45,170.5,212.71,170.5,213.27Z"/><path class="cls-1" d="M161.14,217c-.06.5-.27.78-.75.75a.69.69,0,0,1,.07-1.37A.67.67,0,0,1,161.14,217Z"/><path class="cls-1" d="M5.62,153.25c0-3.58,0-7.17,0-10.75a3.32,3.32,0,0,1,3.59-3.65c.67,0,.82-.2.8-.83,0-1.78,0-3.56,0-5.34,0-.68.25-.94.93-.94q5.46,0,10.92,0c.6,0,.88.22.87.83,0,.81,0,1.61,0,2.42s-.21.95-.91.92c-1,0-1.94,0-2.91,0-.42,0-.64.08-.57.54a2.8,2.8,0,0,1,0,.5c0,.59-.18,1.28.08,1.72s1,.12,1.54.21a3.36,3.36,0,0,1,2.74,3.22c0,2.25,0,4.51,0,6.76q0,7.54,0,15.09c0,2.36-1.27,3.69-3.63,3.72q-4.92.06-9.84,0c-2.32,0-3.62-1.4-3.62-3.74V153.25Zm15.93.06h0c0-3.62,0-7.23,0-10.84A2.23,2.23,0,0,0,19,140H9.44c-1.91,0-2.71.83-2.72,2.76,0,4.25,0,8.5,0,12.75v8.33c0,1.85.87,2.73,2.68,2.73,3.23,0,6.45,0,9.67,0a2.41,2.41,0,0,0,2.5-2.49C21.51,160.47,21.55,156.89,21.55,153.31ZM14.26,135.9c-.28,0-.56,0-.83,0-.74,0-1.71-.33-2.16.15s0,1.43-.13,2.17c-.06.51.18.61.61.61,1.05,0,2.11,0,3.16,0,2.39,0,2.38,0,2.27-2.42,0-.4-.11-.54-.51-.52C15.87,135.92,15.06,135.9,14.26,135.9Zm-.17-1.14H16c1.18,0,1.16,0,1.17-1.2,0-.47-.05-.7-.61-.68-1.62,0-3.23,0-4.84,0-.5,0-.64.17-.59.63a2.43,2.43,0,0,1,0,.66c-.05.48.13.63.62.6C12.53,134.72,13.31,134.76,14.09,134.76Zm5.84-1.87c-1.65,0-1.63,0-1.61,1.31,0,.43.11.59.55.56a12,12,0,0,1,1.9,0c.71.09.78-.22.82-.83.06-.87-.22-1.2-1.08-1.05A3.74,3.74,0,0,1,19.93,132.89Z"/><path class="cls-1" d="M8.19,153.21V147a3.39,3.39,0,0,1,3.58-3.6c1.64,0,3.28,0,4.92,0a3.3,3.3,0,0,1,3.41,3.33c0,4.36,0,8.72,0,13.08a3.3,3.3,0,0,1-3.41,3.36c-1.66,0-3.33,0-5,0a3.39,3.39,0,0,1-3.51-3.6Zm10.79,0h0c0-2.11,0-4.23,0-6.34a2.22,2.22,0,0,0-2.31-2.39c-1.67,0-3.34,0-5,0a2.24,2.24,0,0,0-2.32,2.4c0,4.19,0,8.39,0,12.58a2.3,2.3,0,0,0,2.6,2.54h4.34a2.37,2.37,0,0,0,2.7-2.7C19,157.28,19,155.26,19,153.23Z"/><path class="cls-1" d="M0,211.78c0-5.42,0-10.84,0-16.26,0-1.11,0-1.14,1.1-1.14,8.73,0,17.45,0,26.17,0,.74,0,1,.22,1,1q0,16.33,0,32.67c0,1.15-.08,1.21-1.24,1.21H1.31c-1.27,0-1.31-.05-1.31-1.3V211.78ZM1.16,215c0,4.09,0,8.18,0,12.26,0,.67.12.89.85.89q12.14,0,24.26,0c.74,0,.93-.16.93-.91q0-12.21,0-24.43c0-.73-.18-.92-.92-.92q-12.16,0-24.35,0c-.63,0-.78.15-.77.77C1.17,206.74,1.16,210.86,1.16,215Zm16.28-19.45h0c-3.08,0-6.16,0-9.24,0-.54,0-.72.13-.7.69,0,1.33,0,2.67,0,4,0,.44.14.56.57.56q9.24,0,18.49,0c.45,0,.63-.11.62-.6,0-1.33,0-2.67,0-4,0-.53-.17-.64-.67-.63C23.49,195.53,20.46,195.52,17.44,195.52ZM6.36,198.18h0c0-.73,0-1.45,0-2.17,0-.41-.13-.52-.52-.51-1.39,0-2.78,0-4.17,0-.42,0-.52.15-.51.53,0,1.42,0,2.83,0,4.25,0,.38.13.47.48.47,1.41,0,2.83,0,4.25,0,.36,0,.49-.12.48-.48C6.35,199.57,6.36,198.87,6.36,198.18Z"/><path class="cls-1" d="M14.09,204.1A10.5,10.5,0,1,1,3.67,214.75,10.56,10.56,0,0,1,14.09,204.1Zm.06,1.17a9.34,9.34,0,1,0,9.35,9.31A9.32,9.32,0,0,0,14.15,205.27Z"/><path class="cls-1" d="M19.51,199.36a1.21,1.21,0,0,1-1.2-1.3,1.16,1.16,0,0,1,1.21-1.18,1.24,1.24,0,0,1,1.28,1.24A1.27,1.27,0,0,1,19.51,199.36Z"/><path class="cls-1" d="M15.81,199.37a1.29,1.29,0,0,1-1.21-1.32,1.21,1.21,0,0,1,1.33-1.16,1.19,1.19,0,0,1,1.16,1.33A1.24,1.24,0,0,1,15.81,199.37Z"/><path class="cls-1" d="M12.19,196.87a1.22,1.22,0,0,1,1.21,1.29,1.25,1.25,0,0,1-1.3,1.22,1.27,1.27,0,0,1-1.18-1.27A1.22,1.22,0,0,1,12.19,196.87Z"/><path class="cls-1" d="M21.78,214.55A7.63,7.63,0,1,1,14.1,207,7.68,7.68,0,0,1,21.78,214.55Zm-14.06.72c.68-.21,1.37-.26,1.46-1.19.06-.55.59-.79,1.13-.8a1.14,1.14,0,0,1,1.16.78c.11.31.21.5.61.54,1.21.11,2.41.33,3.63.42a6.06,6.06,0,0,0,4.31-.81,1,1,0,0,0,.39-1.29,6.47,6.47,0,0,0-12.69,2.35Zm12.77.06a9.56,9.56,0,0,1-1.62.64,14.39,14.39,0,0,1-5.7-.11,8.71,8.71,0,0,0-4.58.34c-.57.21-.61.46-.39,1a6.53,6.53,0,0,0,7.64,3.69A6.28,6.28,0,0,0,20.49,215.33Z"/><path class="cls-1" d="M12.91,212.28a.81.81,0,0,1,.83.83.77.77,0,0,1-.88.87.76.76,0,0,1-.8-.86A.8.8,0,0,1,12.91,212.28Z"/><path class="cls-1" d="M11.52,210.77c.39,0,.59.21.57.53a.48.48,0,0,1-.56.48.51.51,0,0,1,0-1Z"/><path class="cls-1" d="M3.85,93.65c0-2.25,0-4.5,0-6.75a7.52,7.52,0,0,1,5.24-7.25,1.07,1.07,0,0,0,.72-.7l1.39-3.39c.13-.32.25-.69.65-.65.72.08.65-.36.65-.81,0-2,0-4,0-6,0-.74.22-1,1-1,1.92.05,3.83,0,5.75,0,2.66,0,3.73,2.11,3.74,4.35,0,0,0,.12,0,.16-.55.87-1.41.34-2.12.46a.66.66,0,0,1-.83-.6c-.27-1.32-.29-1.31-1.6-1.31-.69,0-1.39,0-2.08,0-.42,0-.52.14-.51.52,0,1.25,0,2.5,0,3.75,0,.18-.06.48.22.46.79-.06.84.58,1.05,1.06a6.14,6.14,0,0,1,.38.92,4.9,4.9,0,0,0,3,3.42,6.72,6.72,0,0,1,3.92,6.39c.08,4.67.07,9.34,0,14a7.48,7.48,0,0,1-7.63,7.49,39.9,39.9,0,0,1-6.74-.14,7.49,7.49,0,0,1-6.22-7.3C3.82,98.37,3.85,96,3.85,93.65ZM5,93.76C5,96,5,98.32,5,100.6A6.43,6.43,0,0,0,11.47,107c1.8,0,3.61,0,5.41,0a6.43,6.43,0,0,0,6.44-6.4c0-4.61,0-9.22,0-13.83a6.35,6.35,0,0,0-5.61-6.32,34.5,34.5,0,0,0-6.74,0,6.32,6.32,0,0,0-6,6.65ZM17.23,79.27l-1.23-3c-.09-.22-.26-.25-.47-.25-1,0-1.93,0-2.9,0a.45.45,0,0,0-.51.3c-.34.85-.69,1.69-1,2.54-.1.25-.12.41.25.41Zm-3.58-7.69h0c0,.86,0,1.72,0,2.58,0,.38-.1.74.54.75s.48-.38.48-.71c0-1.44,0-2.88,0-4.33,0-.65.25-.9.89-.88,1,0,1.94.05,2.91,0,1.28-.08,2.25.25,2.55,1.64.07.3.3.32.52.3s.23-.25.22-.45a2.41,2.41,0,0,0-2.28-2.25c-1.77,0-3.55,0-5.32,0-.42,0-.53.16-.52.54C13.66,69.69,13.65,70.63,13.65,71.58Z"/><path class="cls-1" d="M21.38,93.73c0,1.61.05,3.22,0,4.83a5.19,5.19,0,0,1-4.65,5.21,20.18,20.18,0,0,1-5.15,0,5.19,5.19,0,0,1-4.66-5.29c-.06-3.14-.07-6.28,0-9.41a5.3,5.3,0,0,1,5.66-5.43c1.19,0,2.39,0,3.58,0a5.24,5.24,0,0,1,5.21,5.11C21.43,90.4,21.38,92.07,21.38,93.73Zm-1.11,0h-.05c0-1.72.08-3.45,0-5.16a4,4,0,0,0-3.64-3.71c-1.43-.12-2.88-.08-4.33-.06A4.18,4.18,0,0,0,8,89c0,3.17,0,6.33,0,9.5a4.22,4.22,0,0,0,4.33,4.23H15.7a4.24,4.24,0,0,0,4.56-4.5C20.28,96.69,20.27,95.19,20.27,93.69Z"/><circle class="cls-1" cx="14.41" cy="69.03" r="2.47"/><path class="cls-1" d="M3.86,43.21c.37.11,1.14.13,1.35.45.07.11,0-.45,0-.45,0-.23,0-.57,0-.81,0-1.63,0-3.27,0-4.91,0-.23,0-.45,0-.67.09-1.37.27-1.53,1.61-1.53,5.06,0,10.12,0,15.17,0,.64,0,.91.21,1,.79a7.43,7.43,0,0,1,.16,1.41c0,1.88,0,3.77,0,5.66,0,.19,0,.38,0,.57.38.06,1.11-.37,1.11-.68,0-1.92,0-3.83,0-5.75a5.12,5.12,0,0,0-3.15-5,8.16,8.16,0,0,0-3.86-.39c-.78,0-1-.22-.94-1,0-7.89,0-15.78,0-23.67a3.35,3.35,0,0,0-.6-2.11,1.9,1.9,0,0,0-3.26.11A3.78,3.78,0,0,0,12,7.43q0,11.09,0,22.17c0,.74.33,1.68-.17,2.16s-1.38.13-2.09.13C6.13,31.91,4,34,4,37.59,4,39.32,3.87,41.48,3.86,43.21ZM13.15,9.15c0-.83,0-1.66,0-2.49,0-.59.31-1.15.93-1.18s1,.57,1,1.18a11.61,11.61,0,0,1,0,1.32h0v.25c0,1.43-.27,1.63-1.72,1.38C13.13,9.55,13.14,9.37,13.15,9.15Zm0,12c0-3.25,0-6.5,0-9.75,0-.54.1-.75.72-.73,1.33,0,1.33,0,1.33,1.37,0,6.33,0,12.66,0,19,0,1.24-.79.71-1.32.82s-.76-.19-.75-.78C13.16,27.81,13.14,24.51,13.14,21.2ZM9,33.05c3.39,0,6.78,0,10.17,0a3.72,3.72,0,0,1,2.57,1H6.61A3.2,3.2,0,0,1,9,33.05Z"/><path class="cls-1" d="M21.78,34.1H6.61A3.2,3.2,0,0,1,9,33.05c3.39,0,6.78,0,10.17,0A3.72,3.72,0,0,1,21.78,34.1Z"/><polygon class="cls-1" points="7.9 43.21 8.35 40.07 8.8 43.21 7.9 43.21"/><polygon class="cls-1" points="11.05 43.21 11.5 40.07 11.95 43.21 11.05 43.21"/><polygon class="cls-1" points="14.19 43.21 14.64 40.07 15.09 43.21 14.19 43.21"/><polygon class="cls-1" points="17.33 43.21 17.78 40.07 18.23 43.21 17.33 43.21"/><polygon class="cls-1" points="20.48 43.21 20.93 40.52 21.37 43.21 20.48 43.21"/><polygon class="cls-1" points="24.07 43.21 23.62 44.56 4.76 44.56 3.86 43.21 24.07 43.21"/></g></g></svg>