<svg xmlns="http://www.w3.org/2000/svg" viewBox="0 0 30.49 30.29"><defs><style>.cls-1{fill:#c0e276;}.cls-2{fill:#b4d35e;}.cls-3{fill:#fff;}</style></defs><title>Recurso 17</title><g id="Capa_2" data-name="Capa 2"><g id="Capa_1-2" data-name="Capa 1"><path class="cls-1" d="M15.34,0C7.35-.45,0,6.64,0,15.08a15.25,15.25,0,0,0,30.49,0A15.16,15.16,0,0,0,15.34,0ZM24.7,10.76c-4,3.93-8,7.81-11.92,11.74-.59.59-1,.61-1.62,0-1.82-1.87-3.69-3.7-5.52-5.56a2.17,2.17,0,0,1-.55-2.61A1.94,1.94,0,0,1,7,13.28a2.16,2.16,0,0,1,1.37.56c.46.39.89.81,1.32,1.24,2.42,2.41,2.4,2.4,4.91-.06s4.89-4.78,7.36-7.14c1-1,2.25-1.09,3.07-.31S25.79,9.68,24.7,10.76Z"/><path class="cls-2" d="M12.07,23.29l6,6.73a15,15,0,0,0,9.31-5.73,15.89,15.89,0,0,0,3-10.35L25.07,8.29Z"/><path class="cls-3" d="M21.92,7.88Q18.21,11.42,14.56,15c-2.51,2.46-2.49,2.47-4.91.06-.43-.43-.86-.85-1.32-1.24A2.16,2.16,0,0,0,7,13.28a1.94,1.94,0,0,0-1.87,1.05,2.17,2.17,0,0,0,.55,2.61c1.83,1.86,3.7,3.69,5.52,5.56.59.61,1,.59,1.62,0,4-3.93,8-7.81,11.92-11.74,1.09-1.08,1.16-2.37.29-3.19S23,6.88,21.92,7.88Z"/></g></g></svg>