<svg xmlns="http://www.w3.org/2000/svg" viewBox="0 0 112 336"><defs><style>.cls-1{fill:#0d7384;}.cls-2{fill:#118fa3;}.cls-3{fill:#35ddef;}.cls-4{fill:#1cb6c6;}.cls-5{fill:#27c7e2;}.cls-6{fill:#51ecf4;}.cls-7{fill:#21a3aa;}.cls-8{fill:#177774;}.cls-9{fill:#2ed4e5;}</style></defs><title>Recurso 1</title><g id="Capa_2" data-name="Capa 2"><g id="Capa_1-2" data-name="Capa 1"><polygon class="cls-1" points="10 258 13 256 88 243 97.5 242 102 243 96 258 32 299 34.64 332.97 29 336 10 258"/><rect class="cls-2" x="48" width="11" height="248"/><rect class="cls-3" x="49" width="5" height="248"/><path class="cls-4" d="M22.89,255.63q.75-.1,1.5-.24l4.82-.86,7.36-1.32,9.15-1.65L56,249.73l10.56-1.9L76.7,246l9.06-1.62,7.22-1.3,4.64-.83A6,6,0,0,1,99,242l-13-1-2.25.43-6,1.13-8.63,1.63L59,246.12l-10.55,2L38.56,250l-8,1.51-2.7.51c-.8.16-1.55.46-2.34.64-1.69.39-3.47.58-5.18.82-3,.42-6.68.8-8.82,3.25-.07.07-.14.2-.06.27s.13,0,.2,0a12.33,12.33,0,0,1,4.36-.45,15.37,15.37,0,0,0,3.94-.44C20.93,255.89,21.91,255.76,22.89,255.63Z"/><path class="cls-5" d="M40,319l4,10-2.07,1.13,8-3.12L49,311l4.61,14.58,6.33-2.47L61,313l2.19,8.85,16-6.23L79,300l3.35,14.38,6.71-2.61L91,304l2.93,5.87,4.57-1.78L98,295l3.32,12L112,303l-10.31-59.61L21,258l11,76,8.26-3.22Zm33-1-3,1-1-15Z"/><path class="cls-3" d="M28.91,328.09l-9.53-69.31c-.4-2-9.06-2-9.46,0L.3,328.56A23.21,23.21,0,0,0,.3,336l4-.06L7,326v9.89l-2.14,0,6.43-.11L14,315v20.78l4.35-.07L21,326v9.66l7.91-.13A23.21,23.21,0,0,0,28.91,328.09Z"/><rect class="cls-3" x="44" width="19" height="40"/><rect class="cls-6" x="44" width="10" height="40"/><rect class="cls-7" x="44" y="6" width="19" height="1"/><rect class="cls-8" x="54" y="6" width="9" height="1"/><rect class="cls-8" x="54" y="6" width="9" height="1"/><rect class="cls-7" x="44" y="11" width="19" height="1"/><rect class="cls-7" x="44" y="16" width="19" height="1"/><rect class="cls-7" x="44" y="21" width="19" height="1"/><rect class="cls-7" x="44" y="26" width="19" height="1"/><rect class="cls-7" x="44" y="31" width="19" height="1"/><rect class="cls-7" x="44" y="36" width="19" height="1"/><rect class="cls-8" x="54" y="11" width="9" height="1"/><rect class="cls-8" x="54" y="16" width="9" height="1"/><rect class="cls-8" x="54" y="21" width="9" height="1"/><rect class="cls-8" x="54" y="26" width="9" height="1"/><rect class="cls-8" x="54" y="31" width="9" height="1"/><rect class="cls-8" x="54" y="36" width="9" height="1"/><path class="cls-9" d="M32,334c-1,0-5-56,70-91L21,258Z"/><path class="cls-4" d="M43.7,249S44,239.59,54,238.83c11-.83,11.27,6.09,11.27,6.09Z"/></g></g></svg>