<svg xmlns="http://www.w3.org/2000/svg" viewBox="0 0 78.02 82.23"><defs><style>.cls-1{fill:#3bf6ff;}.cls-2{fill:#35ddef;}.cls-3{fill:#27c7e2;}</style></defs><title>Recurso 12</title><g id="Capa_2" data-name="Capa 2"><g id="Capa_1-2" data-name="Capa 1"><path class="cls-1" d="M10.35,68.52c-13.63-8.35-13.91-26.63-.17-34.69,7.41-4.35,11.28-10.32,13.25-18.51C27.1,0,45.8-3.84,53.83,3.82a4.65,4.65,0,0,0,.93,1.33c12.45,8.55,11.1,24.48-2,32.86-7,4.49-10.9,10.07-13,18S32.69,69.29,24,71C18.78,72.05,14.71,70.26,10.35,68.52Z"/><path class="cls-2" d="M10.35,68.52c4.36,1.74,8.43,3.53,13.6,2.5,8.74-1.73,13.73-7.19,15.78-15s5.94-13.52,13-18c13.14-8.38,14.49-24.31,2-32.86a4.65,4.65,0,0,1-.93-1.33A93.08,93.08,0,0,1,71.7,16.69c9.94,9,7.87,24.89-4.14,32-7,4.16-10.93,9.73-12.82,17.63C51.17,81.28,34.93,87,22.62,77.84,18.5,74.79,13.79,72.47,10.35,68.52Z"/><path class="cls-3" d="M12.44,47.23c1.8,1.32,2.36,3,1.44,5s-2.4,2-4,.93c-1.91-1.31-3.31-3-1.73-5.35C9.22,46.23,10.93,46.46,12.44,47.23Z"/><path class="cls-3" d="M27.91,44.84c1.81,1.32,2.37,3,1.45,5s-2.4,2-4,.93c-1.91-1.31-3.31-3-1.74-5.35C24.7,43.84,26.41,44.07,27.91,44.84Z"/><path class="cls-3" d="M23.88,59.73c1.8,1.32,2.36,3,1.44,5s-2.4,2-4,.94c-1.91-1.31-3.31-3.05-1.73-5.35C20.66,58.72,22.37,59,23.88,59.73Z"/><path class="cls-3" d="M30.76,22.22c1.8,1.32,2.36,3,1.45,5s-2.41,2-4,.94c-1.91-1.31-3.31-3.05-1.73-5.35C27.55,21.21,29.25,21.44,30.76,22.22Z"/><path class="cls-3" d="M45.23,28.7c1.8,1.32,2.36,3,1.45,4.95s-2.41,2-4,.94c-1.91-1.31-3.31-3.05-1.73-5.35C42,27.69,43.72,27.92,45.23,28.7Z"/><path class="cls-3" d="M42.12,8.58c1.81,1.32,2.36,3,1.45,4.95s-2.4,2-4,.94c-1.9-1.31-3.31-3-1.73-5.35C38.91,7.57,40.61,7.8,42.12,8.58Z"/><path class="cls-3" d="M54.81,13.75c1.8,1.32,2.36,3,1.44,5s-2.4,2-4,.93c-1.91-1.31-3.31-3-1.73-5.35C51.59,12.75,53.3,13,54.81,13.75Z"/><path class="cls-3" d="M53.83,3.82a4.65,4.65,0,0,0,.93,1.33c12.45,8.55,11.1,24.48-2,32.86A28.09,28.09,0,0,0,42.59,48.6l15,10.25a26.11,26.11,0,0,1,10-10.12c12-7.15,14.08-23,4.14-32A93.08,93.08,0,0,0,53.83,3.82Z"/></g></g></svg>