<svg xmlns="http://www.w3.org/2000/svg" xmlns:xlink="http://www.w3.org/1999/xlink" viewBox="0 0 340 309"><defs><style>.cls-1{fill:none;}.cls-2{fill:#e5da76;}.cls-3{clip-path:url(#clip-path);}.cls-4{fill:#cec26b;}.cls-5{fill:#12a7c7;}</style><clipPath id="clip-path"><path class="cls-1" d="M289,144.5A144.5,144.5,0,1,1,144.5,0,144.54,144.54,0,0,1,289,144.5Z"/></clipPath></defs><title>Recurso 18</title><g id="Capa_2" data-name="Capa 2"><g id="Capa_6" data-name="Capa 6"><circle class="cls-2" cx="144.5" cy="144.5" r="144.5"/><g class="cls-3"><polygon class="cls-4" points="129 216 261 309 340 205 183.5 86.8 129 159 129 216"/></g><path class="cls-5" d="M128.4,152.67c.06-5.63,1.61-11.68,5.38-15.52,5.27-5.37,13.34-6.63,19.55-10.81,7.26-4.9,10.59-15.39,3.52-22.27q-3.78-3.67-11.33-3.67c-4.2,0-9.3.39-12.58,3.3-4.18,3.73-4,10.67-8,14.59-4.5,4.41-11.3,2-16.36.08q-12.25-4.7-12.25-11.64c0-12.93,11.69-26.22,22.13-32.45C137.17,63.1,163.63,66,179,81.61c15.18,15.41,19.76,44.1,2.86,60.24-5.77,5.51-12.13,10.28-20,12.37.55-.14-1,7.3-1.43,8a8.34,8.34,0,0,1-5.87,4.44,39.53,39.53,0,0,1-9.49.92c-7.68,0-15-1-16.35-9.88A31.22,31.22,0,0,1,128.4,152.67Zm-.64,36.44a9.64,9.64,0,0,1,5.81-4.59c2.8-1,7.18-1.43,13.17-1.43s10.31,1.33,13,4,4,7.79,4,15.41q0,8.18-2,12.15a10.21,10.21,0,0,1-6.23,5.31q-4.18,1.34-13,1.33T129,217q-3.46-3.47-3.47-11.84v-3.27a60.48,60.48,0,0,1,.31-7.14A17.11,17.11,0,0,1,127.76,189.11Z"/></g></g></svg>