<svg xmlns="http://www.w3.org/2000/svg" viewBox="0 0 124.5 124.5"><defs><style>.cls-1{fill:#12a7c7;stroke:#c8e7ed;stroke-miterlimit:10;stroke-width:5px;}.cls-2{fill:#e5da76;}.cls-3{fill:#c1b34d;}.cls-4{fill:#d32627;}.cls-5{fill:#ab2222;}.cls-6{fill:#e5e5ac;}.cls-7{fill:#bae5e4;}.cls-8{fill:#ededed;}.cls-9{opacity:0.67;}.cls-10{fill:#82f4f4;opacity:0.45;}</style></defs><title>Recurso 8</title><g id="Capa_2" data-name="Capa 2"><g id="Capa_1-2" data-name="Capa 1"><circle class="cls-1" cx="62.25" cy="62.25" r="59.75"/><path class="cls-2" d="M44.68,27.08l8.59,1.8,12.46,2.65c0,.3.3.22.45.25,1.52.28,3,.65,4.54.92s2.94.63,4.4,1c.48.12.65-.09.75-.49,0-.11,0-.23.06-.35,0,.88,0,.87.92,1.06L83,35.21a1.05,1.05,0,0,1,.64.37q4.89,5.79,9.79,11.58,3.71,4.37,7.44,8.71c.69.79.36,1.59.07,2.37a1.58,1.58,0,0,1-1.73.94c.05,0,.09-.14.15-.15a1.85,1.85,0,0,0,1.74-1.82c.12-.79,0-.93-.8-.93-8.78,0-16.06,1.22-24.83,1.22-.51,1.22-1.84-1-2-1-.54-.16-1,0-.41.25s0,1.07-.44,1.32a3.36,3.36,0,0,0,.2-1c-.08-.54-.84.55-1.35.46s-.49-1.47-.75-1a1,1,0,0,0,.16,1.35.82.82,0,0,0,1.24-.1.76.76,0,0,0,0-.84c-.15-.23-.39-.16-.59-.13a.31.31,0,0,0-.24.36c0,.1,0,.23.07.27s.24,0,.3-.15a.12.12,0,0,1,.19-.07.18.18,0,0,1,.09.25c-.12.25-.28.43-.59.29a.59.59,0,0,1-.42-.58.83.83,0,0,1,.51-.79.63.63,0,0,1,.77.09,1.13,1.13,0,0,1-.79,2,1.24,1.24,0,0,1-1.2-.78,1.75,1.75,0,0,1,.06-1.35c-.92,0-1.8,0-2.68,0a1.34,1.34,0,0,1-1.21-.56L64.33,53.1C63.14,51.57,62,50,60.78,48.5s-2.31-3-3.45-4.43c-.78-1-1.61-2-2.39-3s-1.52-2-2.32-3S50.82,35.81,50,34.7q-2.7-3.51-5.44-7C44.22,27.3,44.23,27.19,44.68,27.08Z"/><path class="cls-2" d="M62,92.5c-.27-.34,0-.69,0-1,0-1.59,0-3.18.13-4.77.39-6.67.42-13.51.41-20.2,0-1,.72-1.73.68-2.69a29.58,29.58,0,0,1-.13-3,3.22,3.22,0,0,0,0-.76c0-.2-.09-.39-.13-.58a4.31,4.31,0,0,1,.47-2.74,3.17,3.17,0,0,1,1.93,1.18,14.69,14.69,0,0,0,1.15,1.22c.45.38.76.31,1.33.31h3.77c3.21,0,6.43,0,9.64,0l7.71-.08c2.33,0,5.29-.52,7.53,0-1.39,8.26-2.15,16.63-3.2,25-.34,2.64-.26,3-3,3.46s-5.27,1-7.9,1.41c-6.57,1.14-13.16,2.28-19.76,3.27A4.58,4.58,0,0,1,62,92.5Z"/><path class="cls-3" d="M75.93,32.85c0,.12,0,.24-.06.35-.1.4-.27.61-.75.49-1.46-.36-2.92-.73-4.4-1s-3-.64-4.54-.92c-.15,0-.42,0-.45-.25.08-1.19.15-2.39.25-3.58,0-.64-.58-.77-.83-1.19.15-.28.44-.14.66-.21,1.47-.42,2.94-.81,4.41-1.21a1.64,1.64,0,0,1,.93,0c2,.6,4.12,1.18,6.18,1.77-.3.37-.77.44-1.15.67h0l-.1,1.29A14,14,0,0,0,76,30.93v.42a.17.17,0,0,0,0,.28A4.53,4.53,0,0,1,75.93,32.85Z"/><path class="cls-2" d="M77.33,27.13c-2.06-.59-4.13-1.17-6.18-1.77a1.64,1.64,0,0,0-.93,0c-1.47.4-2.94.79-4.41,1.21-.22.07-.51-.07-.66.21a1.22,1.22,0,0,1-.44-.61.85.85,0,0,1,.58-1.23c1.67-.58,3.34-1.14,5-1.73a1.32,1.32,0,0,1,1,0c1.78.66,3.58,1.31,5.37,2,.87.32,1.07.68.85,1.6A2.39,2.39,0,0,1,77.33,27.13Z"/><polygon class="cls-4" points="76.17 27.81 76.18 27.8 76.19 27.82 76.17 27.81"/><path class="cls-4" d="M83.64,59.25c-.11-.19-.33-.09-.51-.19.55-.18,1,.08,1.54.08,2.74,0,5.47,0,8.21,0a1.13,1.13,0,0,1,.63.06l-4.11.05Z"/><path class="cls-4" d="M65.41,59.44c.3-.56.87-.56,1.38-.62.34,0,.39.24.37.52l-.11.07c-.36-.43-.73-.42-1.2,0Z"/><path class="cls-4" d="M78.42,59.28a1.31,1.31,0,0,1,1.92,0l-.19,0a1.57,1.57,0,0,0-1.5,0Z"/><path class="cls-4" d="M67.64,59.35c.18-.28.08-.6.13-.9a.43.43,0,0,1,.25-.37.23.23,0,0,1,.33.21h0c-.42,0-.43.28-.41.54a3.68,3.68,0,0,1,0,.58C67.85,59.45,67.73,59.48,67.64,59.35Z"/><path class="cls-5" d="M65.85,59.44c.47-.45.84-.46,1.2,0A2.86,2.86,0,0,1,65.85,59.44Z"/><path class="cls-5" d="M78.65,59.29a1.57,1.57,0,0,1,1.5,0A3.45,3.45,0,0,1,78.65,59.29Z"/><path class="cls-4" d="M80.59,59.3a8.56,8.56,0,0,1,1.6,0A4.77,4.77,0,0,1,80.59,59.3Z"/><polygon class="cls-4" points="94.29 59.19 94.32 59.16 94.35 59.19 94.32 59.21 94.29 59.19"/><path class="cls-4" d="M68.35,58.29c.28.77.93.58,1.51.59.21,0,.41,0,.35.4a1.81,1.81,0,0,0-1-.16c-.8,0-.8,0-.82-.82Z"/><path class="cls-3" d="M100.33,56.28H73.48c-.23-.07-.35-.05-.41,0H71.89a.65.65,0,0,0-.24,0h-4a1.34,1.34,0,0,1-1.21-.56L64.33,53.1C63.14,51.57,62,50,60.78,48.5s-2.31-3-3.45-4.43c-.78-1-1.61-2-2.39-3s-1.52-2-2.32-3S50.82,35.81,50,34.7q-2.7-3.51-5.44-7c-.3-.39-.29-.5.16-.61-.62-.28-.94,0-1.28.53q-9,13.52-18.13,27a2,2,0,0,0,1.41,2.95c1.21.11,2.43.17,3.65.24.27-.13.37-.4.51-.63,1.4-2.14,2.79-4.29,4.18-6.43l6-9.14c1.4-2.16,2.81-4.32,4.2-6.49.3-.46.47-.42.78,0q3.3,4.29,6.64,8.57c3.13,4,6.27,8.06,9.39,12.1a6.44,6.44,0,0,1,1.15,1.55,7.53,7.53,0,0,1,1.15,1.37c.27.3.43.79.93.76l-.08.07h6.44l22.91,0,.4-.29,1.73,0,2.61-.08c.05,0,.09-.14.15-.15a1.85,1.85,0,0,0,1.74-1.82C101.25,56.42,101.13,56.28,100.33,56.28Z"/><path class="cls-6" d="M63.26,62v-.3l.24-4.15-7.33-9.22h0l-3.56-4.59Q49.28,39.42,46,35.12c-.31-.41-.48-.45-.78,0-1.39,2.17-2.8,4.33-4.2,6.49l-6,9.14c-1.39,2.14-2.78,4.29-4.18,6.43-.14.23-.24.5-.51.63a1.6,1.6,0,0,1,.15.75c.09,1,.18,2.08.28,3.12Q31.39,68.25,32,74.8c.35,3.64.71,7.29,1,10.94,0,.37.15.54.53.61,1,.2,2,.45,3.06.67l5.13,1.08c-.09-2.38-.17-4.75-.27-7.13s-.27-5-.38-7.53c-.11-2.77-.26-5.54-.39-8.31l10.1-.07v0l-.19,14.54c0,.84,0,1.68,0,2.52L50.5,90.5l11,2v0c.16,0,.31,0,.47,0-.27-.34,0-.69,0-1,0-1.59,0-3.18.13-4.77.11-1.87.16-3.73.25-5.59.07-1.63.16-3.26.23-4.89.08-1.9.15-3.8.24-5.7.08-1.71.17-3.42.24-5.12,0-.65.13-1.3.11-1.94l.09-1.57A.13.13,0,0,1,63.26,62Z"/><path class="cls-7" d="M105.82,79.38c.23-9.44-4-8.64-9.61-9.41,5.61-.78,8.49,0,9.58-9.43.83,5.52-1.09,9.4,9.66,9.42C104.7,69.94,106.62,73.82,105.82,79.38Z"/><path class="cls-7" d="M99.32,61.3a2.79,2.79,0,0,0,2.54,2.27,2.76,2.76,0,0,0-2.47,2.22c-.62-1.45-.75-1.59-2.06-2.2C98.74,62.88,98.84,62.77,99.32,61.3Z"/><path class="cls-7" d="M100.1,74.63a2.87,2.87,0,0,0,2.42,2.25,2.84,2.84,0,0,0-2.39,2.45,2.74,2.74,0,0,0-2.25-2.44A2.72,2.72,0,0,0,100.1,74.63Z"/><path class="cls-7" d="M113.59,66.25a2.51,2.51,0,0,0-1.83-1.73,2.31,2.31,0,0,0,1.8-1.83,2.37,2.37,0,0,0,1.94,1.8C114.58,64.86,113.83,65.28,113.59,66.25Z"/><path class="cls-7" d="M112.27,76.08a2.24,2.24,0,0,0-1.62,1.67A2.49,2.49,0,0,0,109,76.11a2.44,2.44,0,0,0,1.59-1.6A2.1,2.1,0,0,0,112.27,76.08Z"/><path class="cls-8" d="M105.16,67.82c.37,0,.56.09.54.39a.93.93,0,0,1-.9.9c-.32,0-.58-.09-.52-.43A1,1,0,0,1,105.16,67.82Z"/><g class="cls-9"><circle class="cls-10" cx="10.11" cy="76.3" r="5.02"/><circle class="cls-10" cx="12.38" cy="82.29" r="5.02"/><circle class="cls-10" cx="18.37" cy="80.02" r="5.02"/><circle class="cls-10" cx="21.78" cy="89.02" r="5.02"/><circle class="cls-10" cx="25.59" cy="82.78" r="5.02"/><circle class="cls-10" cx="32.55" cy="79.46" r="5.02"/><circle class="cls-10" cx="30.93" cy="89.66" r="5.02"/><circle class="cls-10" cx="15.71" cy="87.68" r="5.02"/><circle class="cls-10" cx="74.49" cy="114.92" r="5.02"/><circle class="cls-10" cx="64.32" cy="114.49" r="5.02"/><circle class="cls-10" cx="55.85" cy="112.05" r="5.02"/><circle class="cls-10" cx="41.51" cy="107.75" r="5.02"/><circle class="cls-10" cx="31.48" cy="100.59" r="5.02"/><circle class="cls-10" cx="24.31" cy="94.85" r="5.02"/><circle class="cls-10" cx="34.34" cy="109.18" r="5.02"/><circle class="cls-10" cx="48.68" cy="114.92" r="5.02"/><circle class="cls-10" cx="32.31" cy="96.47" r="5.02"/><circle class="cls-10" cx="36.95" cy="87.31" r="5.02"/><circle class="cls-10" cx="44.79" cy="81" r="5.02"/><circle class="cls-10" cx="53.78" cy="77.59" r="5.02"/><circle class="cls-10" cx="51.03" cy="84.8" r="5.02"/><circle class="cls-10" cx="55.4" cy="92.74" r="5.02"/><circle class="cls-10" cx="64.64" cy="95.42" r="5.02"/><circle class="cls-10" cx="71.68" cy="94.12" r="5.02"/><circle class="cls-10" cx="79.95" cy="110.98" r="5.02"/><circle class="cls-10" cx="85.13" cy="100.68" r="5.02"/><circle class="cls-10" cx="90.34" cy="107.44" r="5.02"/><circle class="cls-10" cx="83.35" cy="106.84" r="5.02"/><circle class="cls-10" cx="70.25" cy="109.16" r="5.02"/><circle class="cls-10" cx="63.1" cy="107.65" r="5.02"/><circle class="cls-10" cx="69.01" cy="103.36" r="5.02"/><circle class="cls-10" cx="57.83" cy="102.79" r="5.02"/><circle class="cls-10" cx="48.84" cy="106.19" r="5.02"/><circle class="cls-10" cx="42.44" cy="98.33" r="5.02"/><circle class="cls-10" cx="49.49" cy="97.04" r="5.02"/><circle class="cls-10" cx="41.19" cy="93.12" r="5.02"/></g><g class="cls-9"><circle class="cls-10" cx="112.14" cy="84.05" r="5.02"/><circle class="cls-10" cx="101.51" cy="98.53" r="5.02"/><circle class="cls-10" cx="103.66" cy="89.61" r="5.02"/><circle class="cls-10" cx="100.01" cy="81.82" r="5.02"/><circle class="cls-10" cx="92.47" cy="75.85" r="5.02"/><circle class="cls-10" cx="92.91" cy="83.56" r="5.02"/><circle class="cls-10" cx="86.34" cy="89.8" r="5.02"/><circle class="cls-10" cx="83.04" cy="81.92" r="5.02"/><circle class="cls-10" cx="87.34" cy="74.75" r="5.02"/><circle class="cls-10" cx="88.78" cy="69.02" r="5.02"/><circle class="cls-10" cx="105.98" cy="84.78" r="5.02"/><circle class="cls-10" cx="76.73" cy="89.56" r="5.02"/><circle class="cls-10" cx="70.4" cy="86.19" r="5.02"/><circle class="cls-10" cx="63.91" cy="89.23" r="5.02"/><circle class="cls-10" cx="55.6" cy="88.37" r="5.02"/><circle class="cls-10" cx="47.21" cy="71.88" r="5.02"/><circle class="cls-10" cx="47.89" cy="88.82" r="5.02"/><circle class="cls-10" cx="55.43" cy="94.78" r="5.02"/><circle class="cls-10" cx="63.06" cy="97.54" r="5.02"/><circle class="cls-10" cx="74.49" cy="101.68" r="5.02"/><circle class="cls-10" cx="70.16" cy="95.8" r="5.02"/><circle class="cls-10" cx="80.98" cy="98.64" r="5.02"/><circle class="cls-10" cx="88.53" cy="104.61" r="5.02"/><circle class="cls-10" cx="97" cy="99.05" r="5.02"/><circle class="cls-10" cx="90.68" cy="95.68" r="5.02"/><circle class="cls-10" cx="96.56" cy="91.35" r="5.02"/></g></g></g></svg>