<svg xmlns="http://www.w3.org/2000/svg" viewBox="0 0 96.06 96.04"><defs><style>.cls-1{fill:#12a7c7;}</style></defs><title>Recurso 10</title><g id="Capa_2" data-name="Capa 2"><g id="Capa_1-2" data-name="Capa 1"><path class="cls-1" d="M92.13,66.67l-5.22-1.74c4.52-11.35,4.73-22.66-.11-33.85A41,41,0,0,0,68.5,11,42.29,42.29,0,0,0,12.24,70.52C21.69,85.6,42.07,95.79,64.8,87l1.75,5.09c-16.15,7.68-41,4.83-56.11-14.24A48,48,0,0,1,76.24,9.12C96.09,23.59,100.3,48.78,92.13,66.67Z"/><path class="cls-1" d="M91.35,86l-5.09,5.14L76.13,80.54c-1.84,4.33-3.43,8.09-5.22,12.32L59.84,59.94,92.75,71,80.67,76.11Z"/><path class="cls-1" d="M48.05,47c-.62,1.8-1,2.88-1.34,4s-.54,2.08-2.17,2.07a2.31,2.31,0,0,1-2.55-2c-.83-2.55-1.85-5-3-8.06-1,2.71-1.86,5-2.75,7.31-.49,1.27-.53,2.74-2.7,2.73s-2-1.74-2.53-2.9a32.22,32.22,0,0,1-1.16-3.14c-.52,1.64-.91,2.87-1.31,4.08-.33,1-.51,2-2.07,1.93a2.32,2.32,0,0,1-2.61-1.87C23,48.52,22,45.9,21,43.21c3.27-.43,3.27-.43,5.2,5.81.58-1.65,1.11-2.93,1.45-4.25s.68-1.86,2.12-1.83,2.14.32,2.46,1.73.84,2.61,1.45,4.43c.42-1.34.72-2.23,1-3.13s.45-1.78.75-3c2.09,0,4.22-.08,6.34.06.45,0,1.06.73,1.24,1.25.48,1.37.76,2.8,1.3,4.89.64-1.93,1.15-3.29,1.55-4.68A1.81,1.81,0,0,1,47.88,43c1.19,0,2,.15,2.37,1.5s.89,2.75,1.57,4.77c.55-2,.84-3.43,1.35-4.76.22-.58.86-1.36,1.35-1.4,2-.16,4.12-.07,6.21-.07l1.71,6.2c.61-1.9,1.05-3.17,1.42-4.46.32-1.12.71-1.85,2.17-1.8s2.09.37,2.42,1.76a39.65,39.65,0,0,0,1.42,4.09c1.69-2-.22-7,5.28-5.6-1.1,3-2.1,6-3.35,9-.23.52-1.49.81-2.27.8a2.16,2.16,0,0,1-1.61-1.07,48.47,48.47,0,0,1-1.7-4.76c-.59,1.69-1.14,3-1.5,4.36a1.79,1.79,0,0,1-2.07,1.59c-1.2,0-2-.2-2.4-1.53-.87-2.69-1.94-5.31-3.12-8.49C56,46.19,54.93,48.83,54,51.52c-.42,1.27-1.15,1.54-2.38,1.56a1.87,1.87,0,0,1-2.12-1.56C49.17,50.23,48.69,49,48.05,47Z"/></g></g></svg>