<svg xmlns="http://www.w3.org/2000/svg" viewBox="0 0 67.43 87.08"><defs><style>.cls-1{fill:#2ed4e5;}.cls-2{fill:#12a7c7;}.cls-3{fill:#35ddef;}.cls-4{fill:#1cb6c6;}.cls-5{fill:#147882;}.cls-6{fill:#1d9096;}</style></defs><title>Recurso 4</title><g id="Capa_2" data-name="Capa 2"><g id="Capa_1-2" data-name="Capa 1"><path class="cls-1" d="M67.34,60l.09,1C65.08,62.06,63,63.7,60.24,63.9c-.9-3.38-2.72-6.27-4.51-9.24-2.44-4-5.14-5.9-9.36-2.28-1.08.93-2.48.69-3.78.71-2.38-1.5-4.78-3-7.11-4.53-.74-.5-2-1-1.3-2.27a2.26,2.26,0,0,1,2.65-.92,24,24,0,0,1,7.67,3.54c1.24.8,2.45,1.37,3.39-.2.82-1.37.27-2.51-1-3.4C38,39.2,28.5,37.77,18.59,42.16,9.45,46.21,6.49,54.38,5.42,63.58c-.37,3.19.46,4.84,4,3.58A2.2,2.2,0,0,1,6.94,69c-2.21,0-2.78,1.32-2.54,3.24.36,2.91,1.45,5.83,1.93,8.71.4,2.41.54,4.45,3.6,4.11-5.48,3-5.47,3-7.12-2.58C-.61,71-1.57,59.51,3.72,48.2c2-4.32,5.35-7.54,9.09-10.23,2.23-1.6,2.35-3,1.56-5.38C11.48,24,8.77,15.25,6,6.58c-.8-2.47-1.71-5,1.66-6.24s4.73,1,5.8,3.73c3.26,8.49,6.65,16.93,10,25.4.83,2.12,1.65,3.61,4.59,3.28,18-2.05,29.27,7,36.49,20.81.77,1.47,1.45,3,2.18,4.48C66.5,58.82,66.42,59.57,67.34,60ZM11.43,5.78C11.5,4.59,11.19,3.3,9.65,3c-1.38-.29-2.2.52-2,1.94S8.24,8,10,8.13C11.27,8.25,11.26,6.93,11.43,5.78Z"/><path class="cls-2" d="M11.43,5.78c-.17,1.15-.16,2.47-1.43,2.35C8.24,8,7.81,6.38,7.63,4.92s.64-2.23,2-1.94C11.19,3.3,11.5,4.59,11.43,5.78Z"/><path class="cls-3" d="M7.6,86.33l54-22.66S53.33,44,46.33,52l-37,14s-4.77.31-5,4C4.33,70,3.33,77,7.6,86.33Z"/><path class="cls-4" d="M8.42,3.07A2,2,0,0,1,9.65,3c1.54.32,1.85,1.61,1.78,2.8-.15,1-.17,2.18-1.07,2.33L22.84,40.64c8.39-2.35,16.44-.56,24,4.67,1.28.89,1.83,2,1,3.4-.94,1.57-2.15,1-3.39.2a24,24,0,0,0-7.67-3.54,2.26,2.26,0,0,0-2.65.92c-.71,1.3.56,1.77,1.3,2.27,2.33,1.57,4.73,3,7.11,4.53,1.3,0,2.7.22,3.78-.71,4.22-3.62,6.92-1.77,9.36,2.28,1.79,3,3.61,5.86,4.51,9.24,2.71-.2,4.84-1.84,7.19-2.91l-.09-1c-.92-.39-.84-1.14-.69-1.92-.73-1.49-1.41-3-2.18-4.48C57.25,39.73,46,30.7,28,32.75c-2.94.33-3.76-1.16-4.59-3.28-3.31-8.47-6.7-16.91-10-25.4C12.36,1.32,11-.87,7.63.34L7.41.43Z"/><path class="cls-5" d="M5.32,68.21S2.91,47,21.62,41c0,0,19.71-6,29.46,9.25Z"/><path class="cls-6" d="M24.52,40.35a27.21,27.21,0,0,0-2.9.64C2.91,47,5.32,68.21,5.32,68.21L31,58.14Z"/></g></g></svg>