<svg xmlns="http://www.w3.org/2000/svg" viewBox="0 0 438.5 438.5"><defs><style>.cls-1{fill:#e5da76;}.cls-2{fill:#c6ba5d;}.cls-3{fill:#a89b42;}.cls-4{fill:#12a7c7;}.cls-5{fill:#1d97b1;}.cls-6{fill:#1490a5;}.cls-7{fill:#2ed4e5;}.cls-8{fill:#35ddef;}.cls-9{fill:#1cb6c6;}.cls-10{fill:#147882;}.cls-11{fill:#1d9096;}.cls-12{fill:#ede7bc;}.cls-13{fill:#27c7e2;}.cls-14{fill:#0d7a7f;}.cls-15{fill:#1299af;}.cls-16{fill:#0d7075;}.cls-17{fill:#159fad;}.cls-18{opacity:0.5;}.cls-19{fill:#82f4f4;opacity:0.45;}.cls-20{fill:#106775;}.cls-21{fill:#0c5959;}.cls-22{fill:#0a3e44;}.cls-23{fill:#e86f66;}.cls-24{fill:#3bf6ff;}.cls-25{fill:#0d7384;}.cls-26{fill:#118fa3;}.cls-27{fill:#51ecf4;}.cls-28{fill:#21a3aa;}.cls-29{fill:#177774;}</style></defs><title>Recurso 13</title><g id="Capa_2" data-name="Capa 2"><g id="Capa_1-2" data-name="Capa 1"><circle class="cls-1" cx="218.91" cy="218.91" r="218.91"/><path class="cls-2" d="M219.59.68h-.68v437.8h.68c120.9,0,218.91-98,218.91-218.91S340.49.68,219.59.68Z"/><circle class="cls-3" cx="218.91" cy="218.91" r="189.58"/><circle class="cls-4" cx="218.91" cy="218.91" r="180.04"/><polygon class="cls-5" points="75.5 164.5 120.5 134.5 155.5 140.5 197.5 200.5 192.5 223.5 182.5 230.5 127.5 232.5 98.5 229.5 82.5 227.5 82.5 208.5 77.5 182.5 75.5 164.5"/><polygon class="cls-5" points="134.5 267.5 214.5 292.5 214.5 306.5 213.5 379.5 128.5 356.5 144.5 299.5 134.5 267.5"/><circle class="cls-6" cx="218.94" cy="220.18" r="30.32"/><path class="cls-7" d="M192.59,328.63c0,.36.07.71.1,1.07-2.43,1.11-4.64,2.8-7.43,3-.93-3.49-2.82-6.49-4.67-9.55-2.52-4.19-5.31-6.11-9.67-2.36-1.12,1-2.56.72-3.91.73-2.46-1.55-4.95-3.06-7.35-4.68-.76-.51-2.07-1-1.34-2.34a2.34,2.34,0,0,1,2.74-1,25.06,25.06,0,0,1,7.92,3.66c1.29.83,2.54,1.42,3.51-.21.85-1.41.27-2.59-1.05-3.51-9.17-6.31-19-7.79-29.24-3.26-9.45,4.19-12.5,12.64-13.61,22.15-.39,3.29.48,5,4.12,3.7a2.26,2.26,0,0,1-2.55,1.94c-2.29,0-2.88,1.37-2.63,3.35.38,3,1.5,6,2,9,.41,2.48.55,4.59,3.72,4.24-5.67,3.07-5.66,3.07-7.36-2.66-3.54-11.93-4.53-23.79.94-35.48,2.07-4.47,5.53-7.8,9.4-10.58,2.3-1.65,2.42-3.15,1.61-5.56-3-8.93-5.79-17.92-8.69-26.89-.82-2.54-1.77-5.19,1.72-6.44s4.89,1,6,3.86c3.38,8.77,6.88,17.49,10.3,26.24.86,2.2,1.71,3.74,4.74,3.39,18.62-2.12,30.26,7.23,37.73,21.52.79,1.52,1.5,3.09,2.24,4.63C191.72,327.45,191.64,328.23,192.59,328.63Zm-57.79-56c.07-1.23-.24-2.57-1.84-2.9-1.43-.29-2.28.55-2.09,2s.63,3.16,2.45,3.32C134.63,275.18,134.63,273.82,134.8,272.63Z"/><path class="cls-4" d="M134.8,272.63c-.17,1.19-.17,2.55-1.48,2.43-1.82-.16-2.26-1.81-2.45-3.32s.66-2.3,2.09-2C134.56,270.06,134.87,271.4,134.8,272.63Z"/><path class="cls-8" d="M130.84,355.89l55.84-23.42s-8.57-20.34-15.8-12.07l-38.25,14.47s-4.93.32-5.17,4.14C127.46,339,126.43,346.24,130.84,355.89Z"/><path class="cls-9" d="M131.69,269.83a2,2,0,0,1,1.27-.1c1.6.33,1.91,1.67,1.84,2.9-.15,1.06-.18,2.25-1.11,2.41l12.91,33.62c8.66-2.42,17-.57,24.84,4.83,1.32.92,1.9,2.1,1.05,3.51-1,1.63-2.22,1-3.51.21a25.06,25.06,0,0,0-7.92-3.66,2.34,2.34,0,0,0-2.74,1c-.73,1.34.58,1.83,1.34,2.34,2.4,1.62,4.89,3.13,7.35,4.68,1.35,0,2.79.23,3.91-.73,4.36-3.75,7.15-1.83,9.67,2.36,1.85,3.06,3.74,6.06,4.67,9.55,2.79-.21,5-1.9,7.43-3,0-.36-.07-.71-.1-1.07-1-.4-.87-1.18-.72-2-.74-1.54-1.45-3.11-2.24-4.63-7.47-14.29-19.11-23.64-37.73-21.52-3,.35-3.88-1.19-4.74-3.39-3.42-8.75-6.92-17.47-10.3-26.24-1.1-2.86-2.49-5.12-6-3.86l-.23.09Z"/><path class="cls-10" d="M128.48,337.16S126,315.23,145.33,309c0,0,20.38-6.2,30.46,9.56Z"/><path class="cls-11" d="M148.33,308.37a28.48,28.48,0,0,0-3,.66c-19.34,6.2-16.85,28.13-16.85,28.13L155,326.75Z"/><circle class="cls-1" cx="218.94" cy="220.18" r="21.65"/><circle class="cls-1" cx="218.94" cy="220.18" r="24.56"/><polygon class="cls-6" points="248.5 224.5 391.5 270.5 389 279 246.5 233.5 248.5 224.5"/><polygon class="cls-6" points="230.5 193.5 238.5 199.5 328.5 75.5 320.5 69.5 230.5 193.5"/><polygon class="cls-6" points="46.5 269.5 190.5 224.5 191.5 233.5 49.5 278.5 46.5 269.5"/><polygon class="cls-6" points="213.5 399.5 213.5 249.5 222.5 248.5 223.5 399.5 213.5 399.5"/><polygon class="cls-5" points="267.5 244.5 298.34 250.05 393.5 280.5 385.5 301.5 365.5 332.5 326.5 371.5 299.46 365.77 276.52 345.84 265.5 253.5 267.5 244.5"/><polygon class="cls-6" points="116.5 70.5 207.5 193.5 197.5 200.5 108.5 76.5 116.5 70.5"/><path class="cls-1" d="M219.73,405.9h-3A187,187,0,0,1,86,86.65,187,187,0,0,1,350.48,351.16,185.76,185.76,0,0,1,219.73,405.9Zm0-184.93V402.9c80.44-.65,148.75-53.18,173-125.7Zm-176,56.23c24.28,72.52,92.59,125.05,173,125.7V221Zm177-59.08,173,56.22A184,184,0,0,0,327.55,71ZM108.91,71A183.94,183.94,0,0,0,42.76,274.34l173-56.22Zm2.42-1.77,106.9,147.13L325.12,69.23a183.67,183.67,0,0,0-213.79,0Z"/><path class="cls-2" d="M218.94,198.53h-.44v43.27h.44a21.65,21.65,0,1,0,0-43.29Z"/><polygon class="cls-10" points="218.94 204.63 223.51 213.89 233.73 215.37 226.34 222.58 228.08 232.76 218.94 227.95 209.8 232.76 211.55 222.58 204.15 215.37 214.37 213.89 218.94 204.63"/><circle class="cls-12" cx="219" cy="15" r="8.5"/><circle class="cls-12" cx="338" cy="54" r="8.5"/><circle class="cls-12" cx="412" cy="284" r="8.5"/><circle class="cls-12" cx="219" cy="424" r="8.5"/><circle class="cls-12" cx="24" cy="284" r="8.5"/><circle class="cls-12" cx="97" cy="54" r="8.5"/><path class="cls-13" d="M140.09,185.41l.36,3.22c-1.9,1-2,2.84-2.17,4.61-.85,11-3.16,21.79-5.3,32.61-1.1,5.59-4.38,7.26-9,8a169.13,169.13,0,0,1-21.9,1.9,165.21,165.21,0,0,1-19.13-1,2.59,2.59,0,0,1-2.77-2.23,119.14,119.14,0,0,1-4.75-19.71c-.56-3.39-1-6.78-1.62-10.16-.33-2-.82-3.94-1.18-5.91s-.15-3.85-.67-5.66c-.24-.87-.68-1.66-.93-2.53a17.7,17.7,0,0,1-.22-4.94c0-4.87-1.92-9.6-1.94-14.48,1.51-.23,4.06-.05,5.36-.66,10.58-.25,21.16-.59,31.74-.78,6.28-.12,12.57,0,18.85-.32,5.27-.24,12-2.44,17,0C141.39,173.37,139.71,179.29,140.09,185.41Z"/><path class="cls-14" d="M148.71,185a36.57,36.57,0,0,1-8.1,3.63c-5.24,1.8-10.64,2.85-15.9,4.46-2,.62-4.52.73-6.63,1.14-1.79.35-6,1.65-7.63.92-2.55-1.13-2.57-3.42-.45-3.81,3-.56,6.11-.27,9.12-.6,4.75-.5,9.19-2.44,13.81-3.49,5.66-1.3,12.34-2.9,16.27-7.52,3-3.48,4.47-7.94,5.32-12.37.22-1.15.4-2.3.54-3.46.43-3.46.74-6.31-2-6.37-.37-.25-3,.75-3.36.5,1.38-.7.42-3.09,1.8-3.79,3.75.51,7.56,1.8,6.93,8a51.36,51.36,0,0,1-2.2,11.38c-1.13,3.32-2.56,7.19-5.23,9.59A17.71,17.71,0,0,1,148.71,185Z"/><path class="cls-15" d="M141.78,167.33c-5.28-2.64-10.57.23-15.86.18-17.23-.18-34.47.49-51.71.89a51,51,0,0,0-5.33.65,18.36,18.36,0,0,1-1.62-1.34c-.64-.43-1.33-.8-1.94-1.27A7.29,7.29,0,0,1,63,162.51c-1-3-2-7.31-1.18-10.41s4.81-3.32,7.47-3.22c3.89.15,7.79.24,11.68.28,13.74.12,27.43-.58,41.16-.28,4,.08,8,.06,12-.1q3-.14,6-.37c3.11-.25,5.34-.78,7,2.49a48.25,48.25,0,0,1,1.78,4.75c.43,1.2.6,2.53,1.9,3.12-1.49.9-2.51,2.83-3.7,4.1A22.3,22.3,0,0,1,141.78,167.33Z"/><path class="cls-16" d="M57.43,161.16l-1-2.57c1.78-1.55,1-5.6,4.9-5.09l2.16,10.4C60.21,165.67,59.41,162.11,57.43,161.16Z"/><path class="cls-16" d="M152.31,154.47c.25,1,.51,1.92.77,2.87-2.47,1.58-2.26,6-7,5.22l-.63-11.46C149.78,149.39,150.07,153.31,152.31,154.47Z"/><path class="cls-8" d="M88.7,171.89c.72,2.13-2.5,5.37-1.79,7.56.58,1.79,10.3,50.18-2.81,53.69-4,2.85-7.73-43.3-8.84-46-.92-2.28-1-6.54-1.07-9.36-.07-2.09.8-4.73,4.26-7C82.12,168.41,87.36,170.73,88.7,171.89Z"/><path class="cls-17" d="M54,164.53c0-.49-.06-1-.08-1.47a5.14,5.14,0,0,1,.86-3.69,1.6,1.6,0,0,1,1.36-.59c.85.14,1.07,1.71,1.34,2.38.68,1.69.15,4.78.32,6.64.51,5.71,2,11.86,6.29,16,3.75,3.57,8.68,4.61,13.58,5.5,3.38.61,6.75,1.26,10.1,2,1.71.38,4.82.4,6.51.84a17.1,17.1,0,0,1,3.24,1.16c.55.37-1.56,1.24-1.33,1.89a9.44,9.44,0,0,1-5,.45c-4.62-.5-9.26-1.15-13.81-2.06-4.06-.81-8.22-1.71-11.75-4-5.44-3.48-8.55-9.69-10.18-15.93A50.06,50.06,0,0,1,54,164.53Z"/><path class="cls-9" d="M103.57,148.92c-7.53.13-15.07.31-22.62.24-3.89,0-7.79-.13-11.68-.28-2.66-.1-6.6,0-7.47,3.22S62,159.54,63,162.51a7.29,7.29,0,0,0,2.34,3.93c.61.47,1.3.84,1.94,1.27a18.36,18.36,0,0,0,1.62,1.34,51,51,0,0,1,5.33-.65c9.77-.23,19.53-.54,29.3-.73Z"/><g class="cls-18"><circle class="cls-19" cx="69.67" cy="148.67" r="4.25"/><circle class="cls-19" cx="73.02" cy="144.4" r="4.25"/><circle class="cls-19" cx="77.29" cy="147.75" r="4.25"/><circle class="cls-19" cx="82.31" cy="141.34" r="4.25"/><circle class="cls-19" cx="83.81" cy="147.35" r="4.25"/><circle class="cls-19" cx="88.6" cy="151.8" r="4.25"/><circle class="cls-19" cx="89.88" cy="143.14" r="4.25"/><circle class="cls-19" cx="97.56" cy="139.51" r="4.25"/><circle class="cls-19" cx="95.76" cy="147.07" r="4.25"/><circle class="cls-19" cx="98.88" cy="153.65" r="4.25"/><circle class="cls-19" cx="105.28" cy="158.68" r="4.25"/><circle class="cls-19" cx="104.88" cy="152.15" r="4.25"/><circle class="cls-19" cx="110.43" cy="146.85" r="4.25"/><circle class="cls-19" cx="118.57" cy="147.02" r="4.25"/><circle class="cls-19" cx="123.93" cy="149.86" r="4.25"/><circle class="cls-19" cx="129.42" cy="147.26" r="4.25"/><circle class="cls-19" cx="136.46" cy="147.96" r="4.25"/><circle class="cls-19" cx="142.99" cy="147.56" r="4.25"/><circle class="cls-19" cx="136.58" cy="142.53" r="4.25"/><circle class="cls-19" cx="130.12" cy="140.22" r="4.25"/><circle class="cls-19" cx="120.42" cy="136.75" r="4.25"/><circle class="cls-19" cx="124.11" cy="141.72" r="4.25"/><circle class="cls-19" cx="114.93" cy="139.34" r="4.25"/><circle class="cls-19" cx="108.53" cy="134.32" r="4.25"/><circle class="cls-19" cx="101.37" cy="139.05" r="4.25"/><circle class="cls-19" cx="106.74" cy="141.88" r="4.25"/><circle class="cls-19" cx="101.77" cy="145.57" r="4.25"/></g><polygon class="cls-20" points="67.63 167.08 144.65 165.27 141.67 168.73 69.24 170.35 67.63 167.08"/><rect class="cls-16" x="91.77" y="188.84" width="20.63" height="8.5" rx="2.74" ry="2.74" transform="translate(4.23 -2.18) rotate(1.25)"/><path class="cls-21" d="M108.24,189l-7.58-.17.09,8.51,7.31.15a4.25,4.25,0,1,0,.18-8.49Z"/><path class="cls-5" d="M228.5,160.5c3-3,5-98,5-98l25,4,60,7-64,87Z"/><path class="cls-5" d="M307.5,216.5c1-6,28-76,28-76l47,4a126.17,126.17,0,0,1,10,27c4,17,6,47,6,47l-61-2Z"/><path class="cls-13" d="M206.31,119a83.79,83.79,0,0,1,8.83-11.91,52.7,52.7,0,0,0,9.54-13.5c4-8.41,3.83-8.48,12.77-6.7.4.28-.36,4.55-.4,5-.22,2.63-.9,6.1-1.44,9.77a45.46,45.46,0,0,0-.6,10.61,14.83,14.83,0,0,0,2,6.27c1.36,2.32,3.11,3.6,2.59,6.54-.49,2.69-5.54,31.49-6.44,31.29-5.6-1.22-11.3-2.07-16.75-3.76-4.55-1.41-10-2.17-11.21-8.35"/><path class="cls-8" d="M221.57,63.32c4-6.43,7.38-8,14.42-6.42,5.22,1.19,10.61,1.71,15.63,3.76l-2.07,8.58c-1.28,0-2.61-.94-3.84.2C239,68,232.33,66.63,225.66,65.15,224.2,64.83,222.43,65,221.57,63.32Z"/><path class="cls-21" d="M221.57,63.32c.86,1.72,2.63,1.51,4.09,1.83,6.67,1.48,13.37,2.87,20.05,4.29-.56,2.22-2.29,4-2.18,6.49l-2.58-.5L224.8,72c-.68-.15-1.36-.34-2.05-.45-2.17-.37-4.28-.93-4.56-3.54C217.94,65.6,219.42,64.16,221.57,63.32Z"/><path class="cls-11" d="M237.7,86.41l-14.94-3.74c.17-3.37.28-6.75,2-9.8-.51,2.29.83,2.9,2.74,3.26,4.15.78,8.27,1.69,12.41,2.55a27.83,27.83,0,0,1-1.55,7.49A1.11,1.11,0,0,0,237.7,86.41Z"/><path class="cls-21" d="M243.53,75.93c-.11-2.44,1.62-4.27,2.18-6.49,1.23-1.14,2.56-.18,3.84-.2l2.57.82c-.21.68-.22,1.55-.66,2-3,3-2.82,6.22-.94,9.66.41.76.67,1.68-.18,2.3-1.1.79-1.9.07-2.45-.81C246.4,80.81,245,78.36,243.53,75.93Z"/><path class="cls-13" d="M239.91,78.68c-4.14-.86-8.26-1.77-12.41-2.55-1.91-.36-3.25-1-2.74-3.26a7.56,7.56,0,0,0,0-.83L241,75.43C240.6,76.51,240.26,77.59,239.91,78.68Z"/><path class="cls-22" d="M252.12,70.06l-2.57-.82,2.07-8.58c1.51.34,3,.59,4.53,1,2.51.71,4.79,1.27,4,5.08s-2.88,4-5.87,3.4A12.4,12.4,0,0,0,252.12,70.06Zm2.21-1.45c2.13.56,3.81.43,4.36-2.07s-.82-3.24-2.9-3.78c-2.31-.6-3.39.05-3.86,2.45S252.31,68.43,254.33,68.61Z"/><path class="cls-23" d="M239.87,122.6l-.6-1.15Z"/><path class="cls-22" d="M254.33,68.61c-2-.18-2.84-1.13-2.4-3.4s1.55-3,3.86-2.45c2.08.54,3.45,1.32,2.9,3.78S256.46,69.17,254.33,68.61Z"/><path class="cls-13" d="M205.24,144.32s-4-17.57,1.07-25.28"/><path class="cls-8" d="M215.14,107.13a61.61,61.61,0,0,0-6,7.65,28.81,28.81,0,0,0-3.23,5.91c-2.2,5.72-1.89,12.9-1.44,18.84.26,3.39.81,7.39,3.56,9.71,2.34,2,5.57,2.54,8.42,3.43,5.45,1.69,11.16,2.54,16.75,3.76,0,.17,0,.35,0,.52-2.92,3.41-6.56,4.26-10.85,3.31-7.13-1.58-14.29-3-21.42-4.59s-10.32-6.48-8.88-13.63c1.66-8.28,3.5-16.53,5.27-24.79a10.25,10.25,0,0,1,3.08-6c9.47-7.95,16.51-17.77,22.32-28.57l14.94,3.74a3.11,3.11,0,0,1-.25.52c-8.94-1.78-8.8-1.71-12.77,6.7A52.7,52.7,0,0,1,215.14,107.13Z"/><path class="cls-24" d="M312.11,215.52c-15.65.21-25.44-14.79-18.27-28.65,3.87-7.46,4-14.44,1.31-22.24-4.94-14.58,8.51-27.57,19.17-25.42a4.54,4.54,0,0,0,1.47.62c14.78.58,22,14.48,15.47,28.29-3.48,7.4-3.76,14-1.35,21.7s1.11,14.68-5.22,20.67C320.94,214,316.63,214.69,312.11,215.52Z"/><path class="cls-8" d="M312.11,215.52c4.52-.83,8.83-1.48,12.58-5,6.33-6,7.6-13.13,5.22-20.67s-2.13-14.3,1.35-21.7c6.51-13.81-.69-27.71-15.47-28.29a4.54,4.54,0,0,1-1.47-.62,91.14,91.14,0,0,1,21.53,1.33c12.93,2.25,19.52,16.5,13.31,28.7-3.62,7.1-4,13.77-1.41,21.3,4.84,14.23-5.64,27.42-20.6,26.3C322.14,216.46,317,217,312.11,215.52Z"/><path class="cls-13" d="M302.72,196.8c2.18.15,3.53,1.27,3.78,3.35s-.93,2.93-2.81,2.85c-2.26-.08-4.33-.79-4.23-3.52C299.53,197.65,301.06,197,302.72,196.8Z"/><path class="cls-13" d="M314.29,186.74c2.18.15,3.53,1.26,3.79,3.34s-.94,2.93-2.82,2.86c-2.26-.09-4.33-.79-4.23-3.53C311.1,187.58,312.63,186.88,314.29,186.74Z"/><path class="cls-13" d="M318.72,201.18c2.18.15,3.53,1.26,3.79,3.34s-.94,2.93-2.82,2.86c-2.26-.09-4.33-.79-4.23-3.53C315.53,202,317.06,201.32,318.72,201.18Z"/><path class="cls-13" d="M304.83,166.51c2.18.15,3.53,1.27,3.78,3.35s-.93,2.92-2.81,2.85c-2.27-.08-4.33-.79-4.23-3.53C301.64,167.35,303.17,166.65,304.83,166.51Z"/><path class="cls-13" d="M320.2,164.32c2.18.15,3.53,1.26,3.78,3.34s-.93,2.93-2.81,2.86c-2.26-.09-4.33-.79-4.23-3.53C317,165.16,318.54,164.46,320.2,164.32Z"/><path class="cls-13" d="M307.11,149.27c2.18.15,3.54,1.27,3.79,3.35s-.94,2.93-2.82,2.86c-2.26-.09-4.33-.79-4.23-3.53C303.92,150.12,305.45,149.42,307.11,149.27Z"/><path class="cls-13" d="M320.32,146.93c2.18.15,3.53,1.27,3.79,3.35s-.94,2.93-2.82,2.85c-2.26-.08-4.33-.79-4.23-3.52C317.13,147.78,318.66,147.08,320.32,146.93Z"/><path class="cls-13" d="M314.32,139.21a4.54,4.54,0,0,0,1.47.62c14.78.58,22,14.48,15.47,28.29a27.69,27.69,0,0,0-2.86,14.06l17.75.68a25.55,25.55,0,0,1,3-13.62c6.21-12.2-.38-26.45-13.31-28.7A91.14,91.14,0,0,0,314.32,139.21Z"/><polygon class="cls-25" points="258.4 351.27 259.52 350.33 289.12 341.67 292.89 340.83 294.75 341.03 293.02 347.34 269.13 366.77 271.75 380.33 269.62 381.8 258.4 351.27"/><rect class="cls-26" x="267.56" y="245.1" width="4.46" height="100.48" transform="translate(-31.61 32.33) rotate(-6.48)"/><rect class="cls-8" x="267.97" y="245.19" width="2.03" height="100.48" transform="translate(-31.62 32.24) rotate(-6.48)"/><path class="cls-9" d="M263.48,349.73l.59-.17L266,349l2.9-.87,3.61-1.08,4-1.21,4.17-1.25,4-1.2,3.58-1.07,2.84-.85,1.83-.55a3.8,3.8,0,0,1,.55-.16l-5.28.19-.89.28L285,342l-3.4,1.05-4,1.24-4.16,1.29-3.88,1.2-3.16,1-1.06.33c-.32.1-.6.26-.92.37-.66.23-1.36.39-2,.56-1.2.31-2.65.63-3.41,1.71,0,0,0,.09,0,.11a.08.08,0,0,0,.08,0,4.77,4.77,0,0,1,1.74-.38,6.51,6.51,0,0,0,1.57-.36C262.7,349.92,263.09,349.83,263.48,349.73Z"/><path class="cls-13" d="M273.27,374.46l2.06,3.84-.78.55,3.08-1.62-1.11-6.41,2.53,5.66,2.43-1.28,0-4.12,1.28,3.46,6.15-3.24L288.1,365l2,5.64,2.58-1.36.43-3.21,1.45,2.22,1.76-.92-.8-5.25,1.88,4.68,4.12-2.1-6.88-23.52-31.81,9.57,7.9,30.09,3.18-1.67Zm13.24-1.91-1.17.53-1.08-6Z"/><path class="cls-8" d="M269.22,378.62l-7-27.46c-.25-.81-3.74-.41-3.8.43l-.69,28.53a9.52,9.52,0,0,0,.34,3l1.59-.21.65-4.13.45,4-.85.11,2.58-.34.14-8.5.95,8.36,1.75-.23.62-4,.44,3.89,3.18-.41A9.52,9.52,0,0,0,269.22,378.62Z"/><rect class="cls-8" x="261.18" y="245.37" width="7.7" height="16.21" transform="matrix(0.99, -0.11, 0.11, 0.99, -26.91, 31.53)"/><rect class="cls-27" x="261.19" y="245.58" width="4.05" height="16.21" transform="translate(-26.95 31.33) rotate(-6.48)"/><rect class="cls-28" x="260.56" y="247.84" width="7.7" height="0.41" transform="translate(-26.3 31.43) rotate(-6.48)"/><rect class="cls-29" x="264.6" y="247.61" width="3.65" height="0.41" transform="translate(-26.27 31.65) rotate(-6.48)"/><rect class="cls-29" x="264.6" y="247.61" width="3.65" height="0.41" transform="translate(-26.27 31.65) rotate(-6.48)"/><rect class="cls-28" x="260.79" y="249.85" width="7.7" height="0.41" transform="translate(-26.53 31.46) rotate(-6.48)"/><rect class="cls-28" x="261.02" y="251.86" width="7.7" height="0.41" transform="translate(-26.76 31.5) rotate(-6.48)"/><rect class="cls-28" x="261.25" y="253.88" width="7.7" height="0.41" transform="matrix(0.99, -0.11, 0.11, 0.99, -26.98, 31.54)"/><rect class="cls-28" x="261.48" y="255.89" width="7.7" height="0.41" transform="translate(-27.21 31.58) rotate(-6.48)"/><rect class="cls-28" x="261.71" y="257.9" width="7.7" height="0.41" transform="translate(-27.43 31.62) rotate(-6.48)"/><rect class="cls-28" x="261.94" y="259.91" width="7.7" height="0.41" transform="translate(-27.66 31.66) rotate(-6.48)"/><rect class="cls-29" x="264.83" y="249.62" width="3.65" height="0.41" transform="translate(-26.49 31.69) rotate(-6.48)"/><rect class="cls-29" x="265.06" y="251.63" width="3.65" height="0.41" transform="translate(-26.72 31.73) rotate(-6.48)"/><rect class="cls-29" x="265.29" y="253.65" width="3.65" height="0.41" transform="translate(-26.94 31.77) rotate(-6.48)"/><rect class="cls-29" x="265.52" y="255.66" width="3.65" height="0.41" transform="translate(-27.17 31.81) rotate(-6.48)"/><rect class="cls-29" x="265.75" y="257.67" width="3.65" height="0.41" transform="translate(-27.39 31.84) rotate(-6.48)"/><rect class="cls-29" x="265.97" y="259.69" width="3.65" height="0.41" transform="translate(-27.62 31.88) rotate(-6.48)"/><path class="cls-7" d="M270.73,380.86c-.4.05-4.57-22.31,24-39.83l-31.92,9.74Z"/><path class="cls-9" d="M271.56,346.11a4.31,4.31,0,0,1,3.68-4.57c4.39-.83,4.81,1.94,4.81,1.94Z"/></g></g></svg>