<svg xmlns="http://www.w3.org/2000/svg" viewBox="0 0 254.18 269.62"><defs><style>.cls-1{fill:#fff;}</style></defs><title>Recurso 14</title><g id="Capa_2" data-name="Capa 2"><g id="Capa_5" data-name="Capa 5"><path d="M145.62,54.68c5.24,1.29,7.9,4.87,9.43,9.87,2,6.53,4.39,12.94,6.62,19.4.15.45.28.91.54,1.76-7.82-6-15.79-9-25.2-3.45-1.6-5.77-3.41-11.19-4.56-16.74-.86-4.15,2.16-8.21,6.48-9.9.83-.33,1.66-.63,2.49-.94Z"/><path d="M150.55,129.8a20,20,0,0,1,9-6.12,20.75,20.75,0,0,1,19,3.1c12.64,8.95,21.28,21.06,26.79,35.45a70.25,70.25,0,0,1,4.68,21.42,2.63,2.63,0,0,0,1.88,2.61c12.14,5.17,22.88,12.38,31.39,22.56a101.76,101.76,0,0,1,9,12.84c3.05,5.08,2.41,10.44-1.16,15-10,12.59-21.37,23.67-35.81,31.19-5.65,2.94-11.51,2.27-16-1.69s-6.45-10.17-4.59-15.32a10.83,10.83,0,0,1,4.89-5.82c6.12-3.55,12.12-7.26,17.31-12.13,1.89-1.77,3.74-3.57,5.77-5.5a38.74,38.74,0,0,0-10.53-9.84c-4.58-2.78-9.44-5.1-14.22-7.55-1.46-.75-3,.3-3.55,2.05-2.64,8.9-5.24,17.81-8,26.67-1.06,3.39-2.65,6.62-3.83,10-2.27,6.48-8,8.5-13.69,7.87a15.54,15.54,0,0,1-9-4.12c-11.66-10.9-23.05-22.06-32.37-35.13-1.46-2-2.85-4.15-4.25-6.24-6.44-9.63,0-17.89,7.3-20.29,6.25-2.06,11.74-.5,15.56,4.92a170.62,170.62,0,0,0,16.74,20.95l1.61,1.63c.83-3.07,1.69-5.88,2.34-8.74.92-4.09,2.22-8.19,2.38-12.32A62,62,0,0,0,167.84,183a33.22,33.22,0,0,0-3.94-10.93,68.39,68.39,0,0,0-9.32-11.5c-5.67-5.83-12.89-9.55-19.94-13.41-14.08-7.71-29-13.4-44.15-18.67C83,125.89,80,119.76,82.62,112.82c2-5.32,6.66-7.94,12.06-6.15,7.69,2.53,15.36,5.21,22.82,8.35C128.49,119.65,139.3,124.74,150.55,129.8Z"/><path d="M148.72,122.32a18.68,18.68,0,1,1,18.74-18.65A18.81,18.81,0,0,1,148.72,122.32Z"/><polygon points="68 145.68 68 135.68 0 139.68 68 145.68"/><polygon points="68 169.68 68 159.68 0 163.68 68 169.68"/><polygon points="68 192.68 68 182.68 0 186.68 68 192.68"/><polygon points="165.9 15 168 30.16 176 26.79 160 56.68 169.68 33.53 163.79 36.47 165.9 15"/><polygon points="141.9 0 144 15.16 152 11.79 136 41.68 145.68 18.53 139.79 21.47 141.9 0"/><polygon points="114.89 15 117 30.16 125 26.79 109 56.68 118.68 33.53 112.79 36.47 114.89 15"/><ellipse class="cls-1" cx="160.5" cy="108.68" rx="3.5" ry="5"/><rect class="cls-1" x="151.69" y="93.05" width="1.06" height="7.28" transform="translate(-25.03 129.87) rotate(-43.03)"/><rect class="cls-1" x="148.23" y="96.15" width="7.28" height="1.06" transform="matrix(0.68, -0.73, 0.73, 0.68, -22.43, 141.75)"/></g></g></svg>