<svg xmlns="http://www.w3.org/2000/svg" viewBox="0 0 144.93 202.56"><defs><style>.cls-1,.cls-2{fill:#fff;}.cls-2{opacity:0;}</style></defs><title>Recurso 3</title><g id="Capa_2" data-name="Capa 2"><g id="Capa_1-2" data-name="Capa 1"><path d="M43,77a97.3,97.3,0,0,1-14.53,2.14,13.41,13.41,0,0,1-4.77-.38,5.08,5.08,0,0,1-3.43-3.1,6.19,6.19,0,0,1,.62-4.4c2.55-5.45,8-8.81,12.42-12.91a4.42,4.42,0,0,0,1.62-2.5A3.67,3.67,0,0,0,34.52,54,8.38,8.38,0,0,0,29.4,49.3c-2.91-.88-6.13.09-8.62,1.83A30.52,30.52,0,0,0,10.54,64.91c-1.67,4.46-4.3,9.69-4.79,14.42A13.09,13.09,0,0,0,9.08,89.84C13.24,94,19.89,94,25.78,93.64l17-1C46.2,92.5,46,113.76,45.61,116a61.1,61.1,0,0,1-9.2,23.54c-6.17,9.7-14.23,18-22.54,25.87-4.23,4-8.39,8.35-11.18,13.52-2.3,4.27-4.69,12.58,0,16.28,4.28,3.36,11.12-1.05,14.57-3.7,6.55-5,10.33-12,14.92-18.61a120.59,120.59,0,0,1,11.09-13.81c4-4.28,8.28-8.08,11.23-13.22.77-1.34,1.64-2.89,3.15-3.22,1.71-.36,3.36,1.17,3.78,2.87,1.45,6-2.89,15.33-5.24,20.64C52.15,175.32,45.47,183,39.36,191a14.1,14.1,0,0,0-2.68,4.65c-1.74,6.23,7.1,7.79,11.47,6.51,4.75-1.38,8.39-5.18,11.33-9.16a146.1,146.1,0,0,0,22.77-48.23c2.89-11.24,4.77-23.31,4.44-35.12-.27-9.56-2.86-19-3.22-28.54-.22-5.75,3.54-9,6.51-13.44A29.39,29.39,0,0,0,95.19,54,68.26,68.26,0,0,0,82.41,5.49C80.3,2.65,76-1.67,72.11.67,69,2.54,69.48,6,70.64,9,73.72,16.8,77,24.5,79.07,32.69c2.41,9.68,3.16,21-3.27,28.61-7,8.26-16.14,12.54-26.48,14.46C47.19,76.15,45.08,76.59,43,77Z"/><circle cx="54.93" cy="50.18" r="18"/><path class="cls-1" d="M46.23,56.19l19.18-4.57s1.75,9.46-7.12,11.57C49.93,65.19,46.23,56.19,46.23,56.19Z"/><polygon class="cls-1" points="47.25 48.56 46.61 47.8 50.09 44.89 46.65 42.6 47.21 41.76 51.76 44.8 47.25 48.56"/><polygon class="cls-1" points="62.91 46.97 63.34 46.07 59.24 44.13 62 41.05 61.26 40.38 57.6 44.46 62.91 46.97"/><rect class="cls-2" x="109.93" y="93.18" width="35" height="12"/></g></g></svg>