<svg xmlns="http://www.w3.org/2000/svg" xmlns:xlink="http://www.w3.org/1999/xlink" viewBox="0 0 155.16 325.06"><defs><style>.cls-1{fill:#f4ebae;}.cls-2{fill:#dbd29a;}.cls-3{fill:#12a7c7;}.cls-4{fill:url(#Degradado_sin_nombre_6);}.cls-5{fill:#0f9bb2;}.cls-6{fill:#1fc9db;}.cls-7{fill:#1feaea;}.cls-8{fill:#0092aa;}.cls-9{fill:#1dbed8;}.cls-10{fill:#e5da76;}.cls-11{fill:#c6bd8d;}.cls-12{fill:#093133;}</style><linearGradient id="Degradado_sin_nombre_6" x1="76.06" y1="271.93" x2="81.5" y2="65.93" gradientTransform="translate(-4.71 2.32) rotate(-1.68)" gradientUnits="userSpaceOnUse"><stop offset="0.1" stop-color="#12a7c7"/><stop offset="0.24" stop-color="#12a7c7"/><stop offset="0.52" stop-color="#187285"/></linearGradient></defs><title>Recurso 17</title><g id="Capa_2" data-name="Capa 2"><g id="Capa_6" data-name="Capa 6"><path class="cls-1" d="M36.82,75.27c-5.58,4.46-8.19,12.48-11.63,18.5-4.18,7.31-9.12,14.15-13.53,21.31C5.46,125.14.15,136.28,0,148.09-.14,159.72,5.3,169.67,9.9,180c6.39,14.34,13.92,32.69,10.42,48.44a129.41,129.41,0,0,1-12.25,33C2.46,271.92.61,282.94,6.4,294.1c18,34.68,60.75,36.41,93.1,23.74,11.87-4.65,24.34-12.59,27.83-25.56,3.71-13.78-6.33-26-11.15-38.1a53.13,53.13,0,0,1,2.65-44.5c2.46-4.57,5.6-8.79,7.57-13.59,2.32-5.66,2.93-11.85,3.32-17.94a133.59,133.59,0,0,0-8.2-55.8A110.24,110.24,0,0,0,107.7,96.62C101.77,88.5,94.28,81.55,89,72.93l-.82,2.39-4,.23-.39,3.23a6.18,6.18,0,0,1-7-.28,16.59,16.59,0,0,1-27.37-.76,6.5,6.5,0,0,1-6.63,1.52,7,7,0,0,1-4.26-5.16A10.1,10.1,0,0,0,36.82,75.27Z"/><path class="cls-2" d="M126.4,196.09c2.32-5.66,2.93-11.85,3.32-17.94a133.59,133.59,0,0,0-8.2-55.8A110.24,110.24,0,0,0,107.7,96.62C101.77,88.5,94.28,81.55,89,72.93c-.28.8-.55,1.59-.82,2.39l-4,.23-.39,3.23a6.18,6.18,0,0,1-7-.28A16.87,16.87,0,0,1,63,85.34a16,16,0,0,1-4.12-.67c3.34,3.93,6.79,7.79,9.83,12a110.24,110.24,0,0,1,13.82,25.73,133.59,133.59,0,0,1,8.2,55.8c-.39,6.09-1,12.28-3.32,17.94-2,4.8-5.11,9-7.57,13.59a53.13,53.13,0,0,0-2.65,44.5C82,266.25,92,278.5,88.33,292.28c-3.49,13-16,20.91-27.83,25.56a106.93,106.93,0,0,1-16.83,5c18,4.43,38.41,1.8,55.83-5,11.87-4.65,24.34-12.59,27.83-25.56,3.71-13.78-6.33-26-11.15-38.1a53.13,53.13,0,0,1,2.65-44.5C121.29,205.11,124.43,200.89,126.4,196.09Z"/><path class="cls-3" d="M151.5,177.83c-.28-1.49-1.62-2.52-2.89-3.37-4.61-3.08-10.31-6.12-15.94-4.12-2.61.92-3.76,1.26-6.7.68s-5.93-1.5-9-1.23c-5.7.52-10.17,4.87-15.13,7.72a30.76,30.76,0,0,1-8.36,3.3,7.87,7.87,0,0,1-3.12.24c-4.66-.8-4.91-8.47-9.89-9.31a7.36,7.36,0,0,0-3.81.69c-3.6,1.36-8.63,2.95-11.55,5.53s-2.59,5.6-6.45,7.36a16.06,16.06,0,0,1-12.11.1c-4.87-1.86-8.81-5.59-12-9.71-4-5.11-9-11.1-9.58-17.72s2.68-12.68,6.84-17.51C39,132.17,48.23,127,58.72,124.37a8.7,8.7,0,0,0,5-3,4.44,4.44,0,0,0-.06-5.52c-1.09-1.12-2.76-1.36-4.31-1.55-13-1.55-28.42.74-38,10.35C12.07,134,4.73,148,6.73,161.5c1.78,12,8.59,21.93,16.68,30.7a28.54,28.54,0,0,1,4.52,5.72,19.26,19.26,0,0,1,2,12.87c-.7,3.35-2.05,6.52-3,9.79a45.25,45.25,0,0,0-1.43,19.22c.79,5.69,2.51,13.17,6.29,17.68,2.15,2.56,4.39,4.74,5.9,7.78,1.72,3.47,2.29,7.48,3.14,11.27a29.47,29.47,0,0,0,2.07,7c1.61,3.18,4.49,5.52,7.41,7.56S56.37,295,59.9,295c4.2,0,7.88-2.7,12-3.65,2.69-.63,5.55-.5,8.12-1.5,4.27-1.66,6.79-6,8.85-10.11q4.88-9.72,8.89-19.82c1.51-3.78,3.28-7.85,7.41-9.29,4-1.39,5.44-1,7.66-5a22.27,22.27,0,0,0,2.76-11.44c-.35-10.69-12.62-18.41-10-29.35,2.25-9.61,16.06-11.65,24-13.24,4.1-.82,8.28-1.42,12.17-2.95s7.54-4.17,9.28-8A4.76,4.76,0,0,0,151.5,177.83Z"/><path class="cls-4" d="M151.5,177.83c-.28-1.49-1.62-2.52-2.89-3.37-4.61-3.08-10.31-6.12-15.94-4.12-2.61.92-3.76,1.26-6.7.68s-5.93-1.5-9-1.23c-5.7.52-10.17,4.87-15.13,7.72a30.76,30.76,0,0,1-8.36,3.3,7.87,7.87,0,0,1-3.12.24c-4.66-.8-4.91-8.47-9.89-9.31a7.36,7.36,0,0,0-3.81.69c-3.6,1.36-8.63,2.95-11.55,5.53s-2.59,5.6-6.45,7.36a16.06,16.06,0,0,1-12.11.1c-4.87-1.86-8.81-5.59-12-9.71-4-5.11-9-11.1-9.58-17.72s2.68-12.68,6.84-17.51C39,132.17,48.23,127,58.72,124.37a8.7,8.7,0,0,0,5-3,4.44,4.44,0,0,0-.06-5.52c-1.09-1.12-2.76-1.36-4.31-1.55-13-1.55-28.42.74-38,10.35C12.07,134,4.73,148,6.73,161.5c1.78,12,8.59,21.93,16.68,30.7a28.54,28.54,0,0,1,4.52,5.72,19.26,19.26,0,0,1,2,12.87c-.7,3.35-2.05,6.52-3,9.79a45.25,45.25,0,0,0-1.43,19.22c.79,5.69,2.51,13.17,6.29,17.68,2.15,2.56,4.39,4.74,5.9,7.78,1.72,3.47,2.29,7.48,3.14,11.27a29.47,29.47,0,0,0,2.07,7c1.61,3.18,4.49,5.52,7.41,7.56S56.37,295,59.9,295c4.2,0,7.88-2.7,12-3.65,2.69-.63,5.55-.5,8.12-1.5,4.27-1.66,6.79-6,8.85-10.11q4.88-9.72,8.89-19.82c1.51-3.78,3.28-7.85,7.41-9.29,4-1.39,5.44-1,7.66-5a22.27,22.27,0,0,0,2.76-11.44c-.35-10.69-12.62-18.41-10-29.35,2.25-9.61,16.06-11.65,24-13.24,4.1-.82,8.28-1.42,12.17-2.95s7.54-4.17,9.28-8A4.76,4.76,0,0,0,151.5,177.83Z"/><circle class="cls-3" cx="74.82" cy="137.2" r="43.05"/><path class="cls-5" d="M73.56,94.18a42.77,42.77,0,0,0-20.81,6.07,43,43,0,0,1,22.55,80h.78a43,43,0,1,0-2.52-86Z"/><path class="cls-6" d="M61.32,312.69l-3.29,1a13.83,13.83,0,0,1-17.23-9.11L17.48,252.32a13.82,13.82,0,0,1,9.11-17.22L43.05,230a13.8,13.8,0,0,1,17.22,9.1l10.15,56.33A13.82,13.82,0,0,1,61.32,312.69Z"/><path class="cls-7" d="M44.88,304.47,21.56,252.2A13.82,13.82,0,0,1,30.67,235l16.45-5.07a11.6,11.6,0,0,1,1.6-.38,13.43,13.43,0,0,0-5.67.5L26.59,235.1a13.82,13.82,0,0,0-9.11,17.22L40.8,304.59a13.83,13.83,0,0,0,15.63,9.49A13.83,13.83,0,0,1,44.88,304.47Z"/><path class="cls-8" d="M70.42,295.46,60.27,239.13A13.8,13.8,0,0,0,43.05,230L26.59,235.1a13.69,13.69,0,0,0-7.68,6c.34-.14.69-.28,1-.39l16.46-5.07a13.82,13.82,0,0,1,17.22,9.11L63.79,301.1a13.73,13.73,0,0,1-1.43,11.2A13.81,13.81,0,0,0,70.42,295.46Z"/><path class="cls-6" d="M82.63,313.18l-3.36-.74A13.83,13.83,0,0,1,68.8,296l5.58-57a13.82,13.82,0,0,1,16.44-10.47l16.81,3.73a13.82,13.82,0,0,1,10.46,16.43l-19,54A13.82,13.82,0,0,1,82.63,313.18Z"/><path class="cls-9" d="M102,220.53c-.1-.21-10.16-20.95-31.13-21.64s-25.67,21.64-25.72,21.87l-1-.21c0-.24,5-23.41,26.8-22.72s32,22,32.05,22.25Z"/><path d="M74.94,120.66l33-1s-1.31,11.6-16.12,13.69S74.94,120.66,74.94,120.66Z"/><path d="M41.5,121.64l33-1s-1.31,11.6-16.11,13.69S41.5,121.64,41.5,121.64Z"/><ellipse cx="79.77" cy="156.57" rx="6.12" ry="11.56" transform="translate(-4.55 2.4) rotate(-1.68)"/><path d="M147.25,199.27l-16.45,9.38L98.15,175.73l35.9-20.47Z"/><path class="cls-10" d="M142.45,196.06l-12.34,7-16.64-17L109,181.49c-.48-.49-1.34-.87-1.39-1.58s1-1.55,1.57-1.8a6.82,6.82,0,0,1,3.05-.23l3.21.26a19.56,19.56,0,0,0,5.77-.1A17.71,17.71,0,0,0,126,176a7.1,7.1,0,0,1,1.45-.68,5.24,5.24,0,0,1,2-.14c2.63.24,7.12,1.74,8,4.56Z"/><polygon points="119.3 167.63 113.75 132.52 81.34 152.56 83.36 156.11 112.93 135.59 116.31 169.34 119.3 167.63"/><circle cx="113.38" cy="133.92" r="2.58"/><polygon class="cls-10" points="119.94 179.08 118.76 179.75 113.24 134.38 82.69 154.93 82.02 153.74 113.77 133.24 119.94 179.08"/><path class="cls-10" d="M96.13,171.64a7.63,7.63,0,0,0-2.18.14,3.66,3.66,0,0,1-2-.06,1.86,1.86,0,0,1-1-1.26,1.83,1.83,0,0,1,.4-1.57,2.25,2.25,0,0,1,.77-.56,3,3,0,0,1,2-.19,4.08,4.08,0,0,1,1.57.82,6.63,6.63,0,0,1,2.25,3.41A3.71,3.71,0,0,0,96.13,171.64Z"/><path class="cls-3" d="M137.75,172.8a3.54,3.54,0,0,0-2.05,4.5,4.19,4.19,0,0,0,4.48,2.46,8.57,8.57,0,0,0-2.69,5.36,5.75,5.75,0,0,0,2.49,5.27,8.49,8.49,0,0,0,3.85,1,12.45,12.45,0,0,0,6.79-.94c3.31-1.7,4.95-5.78,4.45-9.47a14.92,14.92,0,0,0-5.74-9.25c-2.51-2-9.86-7.13-13.23-5.92C131.89,167.35,133,174.31,137.75,172.8Z"/><circle class="cls-9" cx="71.43" cy="220.07" r="2.72"/><circle class="cls-11" cx="61.18" cy="9.52" r="9.52"/><path class="cls-11" d="M85.7,75.86C66,50.74,62.34,24.78,62.31,24.52l1.34-.18c0,.25,3.69,25.86,23.12,50.68Z"/><path class="cls-11" d="M40.59,77.18l-1.12-.77c18-25.92,20.09-51.69,20.11-51.95l1.36.1C60.92,24.82,58.75,51,40.59,77.18Z"/><path class="cls-11" d="M50.71,78.27l-1.23-.57C62.73,49.07,60.41,23.32,60.39,23.07l1.35-.14C61.77,23.2,64.11,49.31,50.71,78.27Z"/><path class="cls-11" d="M75.76,78.89C60.69,50.77,61.51,24.56,61.52,24.3l1.36.05c0,.26-.81,26.12,14.08,53.9Z"/><rect class="cls-1" x="53.38" y="19.04" width="15.51" height="4.99" rx="1.83" ry="1.83" transform="translate(-0.6 1.8) rotate(-1.68)"/><rect class="cls-11" x="53.52" y="24.03" width="15.51" height="4.99" rx="1.83" ry="1.83" transform="translate(-0.75 1.8) rotate(-1.68)"/><rect class="cls-1" x="53.67" y="29.01" width="15.51" height="4.99" rx="1.83" ry="1.83" transform="translate(-0.9 1.81) rotate(-1.68)"/><path class="cls-8" d="M98.11,302.34l19.69-53.75A13.81,13.81,0,0,0,107.53,232L90.77,228.1a13.72,13.72,0,0,0-9.67,1.32,10.41,10.41,0,0,1,1.09.2L99,233.55a13.82,13.82,0,0,1,10.26,16.56L89.54,303.85a13.77,13.77,0,0,1-6.89,9A13.82,13.82,0,0,0,98.11,302.34Z"/><path class="cls-7" d="M72.1,297.59l6.36-56.88A13.81,13.81,0,0,1,95,230.47l16.76,4a11.88,11.88,0,0,1,1.57.48,13.6,13.6,0,0,0-5.14-2.45l-16.76-4a13.81,13.81,0,0,0-16.58,10.24l-6.36,56.88a13.82,13.82,0,0,0,8.67,16.09A13.83,13.83,0,0,1,72.1,297.59Z"/><path class="cls-12" d="M57.93,121.14l-16.7.49s2.09,14.81,16.89,12.72l.19,0Z"/><path class="cls-12" d="M91.91,120.15l-16.69.49s2.08,14.8,16.89,12.71l.19,0Z"/></g></g></svg>